<svg width="78" height="88" viewBox="0 0 78 88" fill="none" xmlns="http://www.w3.org/2000/svg">
<path d="M22.7002 24.0274H30.8271C31.5107 24.0274 32.1426 23.6651 32.4834 23.0752C32.8252 22.4873 32.8252 21.7608 32.4834 21.1719C32.3149 20.8821 32.0732 20.6416 31.7825 20.4745C31.4918 20.3074 31.1624 20.2196 30.8271 20.2198H22.7002C21.6465 20.2178 20.79 21.0694 20.7881 22.1231C20.79 23.1778 21.6465 24.0293 22.7002 24.0274ZM51.8633 68.751H46.4316C46.181 68.7503 45.9328 68.799 45.701 68.8943C45.4692 68.9897 45.2586 69.1298 45.0811 69.3067C44.7227 69.6637 44.5207 70.1484 44.5195 70.6543C44.5195 71.7051 45.375 72.5567 46.4316 72.5567H51.8623C52.916 72.5596 53.7715 71.7071 53.7754 70.6543C53.7749 70.4038 53.7251 70.1559 53.6287 69.9246C53.5324 69.6934 53.3914 69.4834 53.2139 69.3067C52.8545 68.9492 52.3691 68.75 51.8633 68.751ZM37.7695 68.751H22.7002C21.6465 68.7491 20.79 69.6006 20.7871 70.6543C20.79 71.708 21.6465 72.5596 22.7002 72.5567H37.7695C38.8232 72.5596 39.6787 71.7071 39.6826 70.6543C39.6787 69.6006 38.8232 68.7491 37.7695 68.751ZM75.5762 69.6455V69.7227L70.8154 65.003V13.9033C70.8154 11.9903 70.0518 10.1563 68.6924 8.80276C67.3302 7.44919 65.4877 6.68978 63.5674 6.69046H16.9639V2.14163C16.9609 1.0889 16.1045 0.237334 15.0518 0.239288H8.14844C4.16797 0.15335 0.854492 3.2637 0.708984 7.22366V80.4942C0.708984 84.4785 3.9541 87.7071 7.95703 87.7071H63.5664C67.5693 87.7071 70.8145 84.4776 70.8145 80.4942V79.333C73.2344 79.626 75.5752 78.3594 76.6543 76.1729C77.7266 73.9912 77.293 71.3672 75.5762 69.6455ZM4.53418 7.22366C4.6416 5.33109 6.25488 3.87894 8.14844 3.96976H13.1387V73.4326H8.14844C6.8885 73.4295 5.64719 73.7367 4.53418 74.3272V7.22366ZM66.9316 80.5694C66.9277 82.4326 65.4297 83.9492 63.5664 83.9756H7.95605C6.1123 83.9278 4.65723 82.3936 4.70508 80.5508C4.7627 78.7071 6.30371 77.2588 8.14746 77.3155H15.0508C15.5566 77.3165 16.0423 77.117 16.4014 76.7608C16.7598 76.4043 16.9619 75.92 16.9639 75.4131V10.4971H63.5674C64.4746 10.4971 65.3457 10.8555 65.9873 11.4951C66.3047 11.8108 66.5566 12.186 66.7285 12.5993C66.9005 13.0126 66.9891 13.4557 66.9893 13.9033V61.1953L64.752 58.9688C64.5736 58.7903 64.3619 58.6486 64.1288 58.5519C63.8957 58.4552 63.6459 58.4054 63.3936 58.4053C62.8848 58.4053 62.3955 58.6075 62.0361 58.9688L60.6973 60.3008L57.6562 57.2754C62.7764 51.4346 64.2266 43.2325 61.418 35.9903C58.6113 28.75 52.0088 23.6494 44.2646 22.7364C36.5195 21.8242 28.9043 25.251 24.4766 31.6407H22.6982C21.6445 31.6387 20.7891 32.4903 20.7861 33.544C20.7676 34.459 21.4014 35.2578 22.2969 35.4473C19 42.752 20.2061 51.3018 25.3955 57.4102H22.6982C21.6455 57.4082 20.79 58.2598 20.7871 59.3125C20.7871 60.3633 21.6426 61.2149 22.6982 61.2149H29.6016C37.3623 66.459 47.6758 65.9541 54.8828 59.9776L57.9238 63.0049L56.5859 64.3555C56.4095 64.5316 56.2696 64.7407 56.1741 64.971C56.0786 65.2012 56.0294 65.448 56.0294 65.6973C56.0294 65.9465 56.0786 66.1934 56.1741 66.4236C56.2696 66.6538 56.4095 66.863 56.5859 67.0391L66.9316 77.3535V80.5694ZM41.499 61.0254C36.9385 61.0264 32.5635 59.2227 29.3291 56.0088C27.7321 54.4219 26.4645 52.535 25.5994 50.4564C24.7343 48.3779 24.2886 46.1489 24.2881 43.8975C24.2881 34.4375 31.9932 26.7696 41.499 26.7696C51.0049 26.7696 58.709 34.4375 58.709 43.8975C58.709 53.3555 51.0029 61.0254 41.499 61.0254ZM72.8603 75.1075C72.1133 75.8457 70.9111 75.8457 70.1641 75.1075L60.6016 65.5918L63.2978 62.9082L72.7637 72.3282C73.1621 72.6739 73.3984 73.169 73.416 73.6963C73.4252 73.9571 73.3806 74.2169 73.285 74.4597C73.1895 74.7025 73.0449 74.923 72.8603 75.1075Z" fill="#C3C3C3"/>
</svg>
