<svg width="22" height="22" viewBox="0 0 22 22" fill="none" xmlns="http://www.w3.org/2000/svg">
<path opacity="0.2" d="M0 20.45C0 21.05 4.9 21.55 11 21.55C17.1 21.55 22 21.05 22 20.45C22 19.85 17.1 19.35 11 19.35C4.9 19.35 0 19.85 0 20.45Z" fill="#E5414D"/>
<path opacity="0.2" d="M14.05 20.65H5.39999C3.49999 20.65 2.64999 19.75 2.64999 18.25V9.05001C2.04999 8.90001 1.79999 8.55001 1.79999 8.05001V6.05001C1.79999 5.40001 2.09999 5.10001 3.59999 5.10001H13.2H20.25C21.2 5.10001 21.55 5.50001 21.55 6.15001V8.05001C21.55 8.70001 21.35 9.05001 20.55 9.10001C20.65 9.60001 20.55 16.75 20.55 18.2C20.55 19.7 19.7 20.65 17.8 20.65H14.05Z" fill="#E5414D"/>
<path d="M13.05 20.2H4.45002C2.55002 20.2 1.70002 19.3 1.70002 17.8V8.55001C1.10002 8.35001 0.900024 8.05001 0.900024 7.55001V5.55001C0.900024 4.90001 1.20002 4.60001 2.70002 4.60001H19.3C20.3 4.60001 20.6 5.00001 20.6 5.65001V7.55001C20.6 8.20001 20.4 8.55001 19.6 8.60001C19.7 9.10001 19.6 16.25 19.6 17.7C19.6 19.2 18.75 20.15 16.85 20.15H13.05V20.2Z" fill="#FF5A5F"/>
<path d="M7.84999 1.05001C8.74999 1.60001 10.35 2.35001 10.85 2.70001C11.5 3.05001 11.5 3.75001 10.6 3.75001H7.49999C6.64999 3.75001 6.64999 2.85001 6.69999 2.20001C6.79999 1.55001 6.99999 0.600013 7.84999 1.05001ZM16.3 2.25001C16.4 2.90001 16.4 3.80001 15.5 3.80001H12.4C11.55 3.80001 11.55 3.10001 12.2 2.70001C12.7 2.40001 14.2 1.60001 15.2 1.05001C15.95 0.550013 16.25 1.55001 16.3 2.25001Z" fill="#FFD3D7"/>
<path d="M7.14999 0.549999C6.34999 0.0999988 6.09999 1.1 5.99999 1.75C5.89999 2.4 5.89999 3.3 6.79999 3.3H9.89999C10.75 3.3 10.75 2.6 10.1 2.2C9.64999 1.95 8.09999 1.1 7.14999 0.549999ZM15.65 1.75C15.55 1.1 15.35 0.0999988 14.5 0.549999C13.6 1.1 12 1.85 11.5 2.2C10.85 2.6 10.85 3.3 11.7 3.3H14.8C15.7 3.3 15.7 2.4 15.65 1.75Z" fill="#FF8F97"/>
<path d="M10.05 11.1H13.1V20.15H10.05V11.1Z" fill="#DAE9FF"/>
<path d="M9.15002 11.1H12.2V20.15H9.15002V11.1Z" fill="white"/>
<path d="M1.70001 8.60001H19.65V11.5H1.70001V8.60001Z" fill="#DB3A4D"/>
</svg>
