<svg width="128" height="100" viewBox="0 0 128 100" fill="none" xmlns="http://www.w3.org/2000/svg">
<rect x="0.5" y="0.5" width="127" height="99" rx="5.5" fill="#F7F9FF" stroke="#E5E5E5"/>
<mask id="mask0_25990_1546" style="mask-type:alpha" maskUnits="userSpaceOnUse" x="0" y="0" width="128" height="100">
<rect width="128" height="100" fill="url(#paint0_linear_25990_1546)"/>
</mask>
<g mask="url(#mask0_25990_1546)">
<path opacity="0.2" d="M8.85547 6.37891H17.0586C19.6497 6.37891 21.6094 6.58073 22.9375 6.98438C24.2786 7.38802 25.3594 8.20833 26.1797 9.44531C27 10.6693 27.4102 12.6484 27.4102 15.3828C27.4102 17.2318 27.1172 18.5208 26.5312 19.25C25.9583 19.9792 24.819 20.5391 23.1133 20.9297C25.0143 21.3594 26.3034 22.0755 26.9805 23.0781C27.6576 24.0677 27.9961 25.5911 27.9961 27.6484V30.5781C27.9961 32.7135 27.7487 34.2956 27.2539 35.3242C26.7721 36.3529 25.9974 37.056 24.9297 37.4336C23.862 37.8112 21.6745 38 18.3672 38H8.85547V6.37891ZM17.0781 11.7891V18.8203C17.4297 18.8073 17.7031 18.8008 17.8984 18.8008C18.7057 18.8008 19.2201 18.6055 19.4414 18.2148C19.6628 17.8112 19.7734 16.6719 19.7734 14.7969C19.7734 13.8073 19.6823 13.1172 19.5 12.7266C19.3177 12.3229 19.0768 12.069 18.7773 11.9648C18.4909 11.8607 17.9245 11.8021 17.0781 11.7891ZM17.0781 23.7422V32.5898C18.237 32.5508 18.9727 32.3685 19.2852 32.043C19.6107 31.7174 19.7734 30.9167 19.7734 29.6406V26.6914C19.7734 25.3372 19.6302 24.5169 19.3438 24.2305C19.0573 23.944 18.3021 23.7812 17.0781 23.7422ZM48.7969 12.082V38H40.7695L40.9062 35.8516C40.3594 36.724 39.6823 37.3815 38.875 37.8242C38.0807 38.2539 37.1628 38.4688 36.1211 38.4688C34.9362 38.4688 33.9531 38.2604 33.1719 37.8438C32.3906 37.4271 31.8112 36.8737 31.4336 36.1836C31.069 35.4935 30.8411 34.7773 30.75 34.0352C30.6589 33.2799 30.6133 31.7891 30.6133 29.5625V12.082H38.5039V29.7188C38.5039 31.737 38.5625 32.9349 38.6797 33.3125C38.8099 33.6901 39.1484 33.8789 39.6953 33.8789C40.2812 33.8789 40.6263 33.6836 40.7305 33.293C40.8477 32.9023 40.9062 31.6458 40.9062 29.5234V12.082H48.7969ZM68.1523 12.082L65.8867 30.832C65.5352 33.8008 65.2357 35.8255 64.9883 36.9062C64.7539 37.987 64.3568 38.8789 63.7969 39.582C63.237 40.2852 62.4557 40.7995 61.4531 41.125C60.4635 41.4635 58.875 41.6328 56.6875 41.6328H51.9023V37.4922C53.1263 37.4922 53.9141 37.4336 54.2656 37.3164C54.6172 37.1862 54.793 36.9062 54.793 36.4766C54.793 36.2682 54.6302 35.3633 54.3047 33.7617L49.9883 12.082H57.1562L59.7344 29.5625L60.9844 12.082H68.1523ZM87.4297 25.5H77.2148V31.1055C77.2148 32.2773 77.2995 33.0326 77.4688 33.3711C77.638 33.7096 77.9635 33.8789 78.4453 33.8789C79.0443 33.8789 79.4414 33.6576 79.6367 33.2148C79.8451 32.7591 79.9492 31.8867 79.9492 30.5977V27.1797H87.4297V29.0938C87.4297 30.6953 87.3255 31.9258 87.1172 32.7852C86.9219 33.6445 86.4531 34.5625 85.7109 35.5391C84.9688 36.5156 84.0247 37.2513 82.8789 37.7461C81.7461 38.2279 80.3203 38.4688 78.6016 38.4688C76.9349 38.4688 75.4635 38.2279 74.1875 37.7461C72.9115 37.2643 71.9154 36.6068 71.1992 35.7734C70.4961 34.9271 70.0078 34.0026 69.7344 33C69.4609 31.9844 69.3242 30.513 69.3242 28.5859V21.0273C69.3242 18.7617 69.6302 16.9779 70.2422 15.6758C70.8542 14.3607 71.8568 13.3581 73.25 12.668C74.6432 11.9648 76.2448 11.6133 78.0547 11.6133C80.2682 11.6133 82.0911 12.0365 83.5234 12.8828C84.9688 13.7161 85.9779 14.8294 86.5508 16.2227C87.1367 17.6029 87.4297 19.5495 87.4297 22.0625V25.5ZM79.5195 21.2812V19.3867C79.5195 18.0456 79.4479 17.1797 79.3047 16.7891C79.1615 16.3984 78.8685 16.2031 78.4258 16.2031C77.8789 16.2031 77.5404 16.3724 77.4102 16.7109C77.2799 17.0365 77.2148 17.9284 77.2148 19.3867V21.2812H79.5195ZM97.918 12.082L97.6055 15.4805C98.7513 13.0456 100.411 11.7565 102.586 11.6133V20.7344C101.141 20.7344 100.079 20.9297 99.4023 21.3203C98.7253 21.7109 98.3086 22.2578 98.1523 22.9609C97.9961 23.651 97.918 25.2526 97.918 27.7656V38H90.0273V12.082H97.918ZM120.477 20.3633H113.484V18.957C113.484 17.7591 113.413 17.0039 113.27 16.6914C113.139 16.3659 112.801 16.2031 112.254 16.2031C111.811 16.2031 111.479 16.3529 111.258 16.6523C111.036 16.9388 110.926 17.375 110.926 17.9609C110.926 18.7552 110.978 19.3411 111.082 19.7188C111.199 20.0833 111.531 20.487 112.078 20.9297C112.638 21.3724 113.777 22.0169 115.496 22.8633C117.788 23.9831 119.292 25.0378 120.008 26.0273C120.724 27.0169 121.082 28.4557 121.082 30.3438C121.082 32.4531 120.809 34.0482 120.262 35.1289C119.715 36.1966 118.797 37.0234 117.508 37.6094C116.232 38.1823 114.689 38.4688 112.879 38.4688C110.874 38.4688 109.155 38.1562 107.723 37.5312C106.303 36.9062 105.327 36.0599 104.793 34.9922C104.259 33.9245 103.992 32.3099 103.992 30.1484V28.8984H110.984V30.5391C110.984 31.9323 111.069 32.8372 111.238 33.2539C111.421 33.6706 111.772 33.8789 112.293 33.8789C112.853 33.8789 113.243 33.7422 113.465 33.4688C113.686 33.1823 113.797 32.5898 113.797 31.6914C113.797 30.4544 113.654 29.6797 113.367 29.3672C113.068 29.0547 111.538 28.1302 108.777 26.5938C106.46 25.2917 105.047 24.1133 104.539 23.0586C104.031 21.9909 103.777 20.7279 103.777 19.2695C103.777 17.1992 104.051 15.6758 104.598 14.6992C105.145 13.7096 106.069 12.9479 107.371 12.4141C108.686 11.8802 110.21 11.6133 111.941 11.6133C113.66 11.6133 115.118 11.8346 116.316 12.2773C117.527 12.707 118.452 13.2799 119.09 13.9961C119.741 14.7122 120.132 15.3763 120.262 15.9883C120.405 16.6003 120.477 17.5573 120.477 18.8594V20.3633Z" fill="#666666"/>
</g>
<path d="M28.4531 37.9883H26.9102L25.1328 38.0664V34.8828L26.9102 34.9414H28.4531V34.2969C28.375 34.3099 28.3229 34.3164 28.2969 34.3164L27.75 34.4336L26.5781 34.668C26.1094 33.5482 25.6471 32.513 25.1914 31.5625C26.7148 31.4062 28.1016 31.1654 29.3516 30.8398C30.6016 30.5143 31.2591 30.332 31.3242 30.293L32.1836 29.9219C33.0039 31.0807 33.7917 31.9792 34.5469 32.6172C34.5339 32.513 34.5273 32.3763 34.5273 32.207C34.5404 32.0378 34.5208 31.569 34.4688 30.8008C34.4167 30.0195 34.4492 29.681 34.5664 29.7852C35.5951 29.8372 36.7018 29.8372 37.8867 29.7852C37.8477 30.4753 37.8346 30.931 37.8477 31.1523V31.5625C38.3945 31.3151 39.1628 30.8789 40.1523 30.2539C40.7253 31.0221 41.3633 32.0638 42.0664 33.3789C41.4935 33.6914 40.9727 33.9648 40.5039 34.1992C40.0482 34.4336 39.6315 34.6615 39.2539 34.8828C39.0846 34.5052 38.8372 34.0039 38.5117 33.3789L37.9258 32.2656L37.8477 32.1289C37.8346 32.2461 37.8346 32.3242 37.8477 32.3633L37.8672 34.707V34.9414H40.9141L42.4961 34.8828V38.0664L40.9141 37.9883H38.043C38.043 38.1055 38.0495 38.1836 38.0625 38.2227L38.1016 38.4961L38.1602 39.0625L38.1992 39.2969L38.375 38.9453L38.8438 38.0078C40.3411 38.8281 41.2786 39.3424 41.6562 39.5508C41.526 39.7591 41.3438 40.0521 41.1094 40.4297C40.888 40.7943 40.7188 41.0742 40.6016 41.2695C40.4974 41.4518 40.0612 42.0898 39.293 43.1836C39.5404 43.5221 39.7096 43.724 39.8008 43.7891C39.9049 43.8542 40.0091 43.8672 40.1133 43.8281C40.2305 43.7891 40.2891 43.7174 40.2891 43.6133L40.3867 42.4805C40.9466 42.8841 41.4089 43.1901 41.7734 43.3984C42.151 43.6068 42.6458 43.7956 43.2578 43.9648C43.1927 44.3424 43.1276 44.6615 43.0625 44.9219C42.9974 45.1823 42.8542 45.6641 42.6328 46.3672C42.4115 47.0703 42.1185 47.5456 41.7539 47.793C41.3893 48.0534 40.8034 48.151 39.9961 48.0859C39.1888 48.0208 38.5312 47.7018 38.0234 47.1289C37.5286 46.556 37.1445 46.0677 36.8711 45.6641C36.3633 46.0286 35.901 46.3216 35.4844 46.543C35.0807 46.7773 34.4102 47.0768 33.4727 47.4414C32.8607 46.5951 32.3333 45.9115 31.8906 45.3906C31.8776 45.5469 31.8711 45.7682 31.8711 46.0547C31.8841 46.3542 31.7734 46.8034 31.5391 47.4023C31.3177 48.0013 29.8854 48.2747 27.2422 48.2227C27.1771 47.793 27.1315 47.4479 27.1055 47.1875C27.0794 46.9401 27.0664 46.8034 27.0664 46.7773L26.5 44.9805C26.9688 45.0456 27.3398 45.0651 27.6133 45.0391C27.9648 45.026 28.1927 44.9609 28.2969 44.8438C28.401 44.7266 28.4531 44.5378 28.4531 44.2773V43.2422C28.0755 43.3594 27.6523 43.5026 27.1836 43.6719C26.7279 43.8411 26.3177 43.9714 25.9531 44.0625C25.3932 42.2917 25.0547 41.1914 24.9375 40.7617C26.1875 40.4362 27.0404 40.2083 27.4961 40.0781C27.9648 39.9349 28.2839 39.8372 28.4531 39.7852V37.9883ZM34.3125 37.9883C34.3125 38.1055 34.3125 38.1901 34.3125 38.2422C34.3255 38.2812 34.332 38.3594 34.332 38.4766L34.3516 39.4922V40.2344L34.3906 41.4258C33.3229 41.7904 32.4831 42.0443 31.8711 42.1875L31.8906 44.6094C33.4401 44.0495 34.6445 43.3854 35.5039 42.6172C35.3346 42.1094 35.1784 41.556 35.0352 40.957C34.8919 40.3581 34.8073 39.9479 34.7812 39.7266L34.6836 38.7891C34.6576 38.5547 34.6445 38.431 34.6445 38.418L34.625 37.9883H34.3125ZM34.2539 37.9883H31.8711V38.75C32.7695 38.5026 33.5638 38.2487 34.2539 37.9883ZM31.8711 34.9414H34.5078C34.5078 34.4987 34.5143 34.082 34.5273 33.6914C34.5404 33.2878 34.5469 33.0273 34.5469 32.9102V32.6758C34.013 32.9102 33.1211 33.1966 31.8711 33.5352V34.9414ZM55.8945 40.4688V41.1328H58.4922L60.8555 41.0547V43.9844L58.4922 43.9062H55.8945V44.8242C58.8112 44.8242 61.2656 44.7396 63.2578 44.5703C63.1797 44.8698 63.1276 45.0911 63.1016 45.2344L62.8477 46.1523L62.5547 47.4023L62.457 47.7539C58.043 47.9232 55.1979 47.9427 53.9219 47.8125C52.6589 47.6953 51.7474 47.5326 51.1875 47.3242C50.6406 47.1159 49.9701 46.6536 49.1758 45.9375C48.681 46.7578 48.1211 47.4414 47.4961 47.9883C46.4023 46.9857 45.7383 46.4062 45.5039 46.25L44.625 45.6641C45.0156 45.3125 45.4323 44.9023 45.875 44.4336C46.3177 43.9518 46.6888 43.3138 46.9883 42.5195C47.2878 41.7253 47.4831 41.0547 47.5742 40.5078L45.2305 40.5469V37.4805L47.8281 37.5391H60.0352L62.9648 37.4805V40.5273L60.0352 40.4688H55.8945ZM52.3984 40.4883H49.5664C49.6706 40.5143 49.9115 40.5794 50.2891 40.6836C50.6797 40.7747 50.9401 40.8268 51.0703 40.8398C51.0052 41.2565 50.9466 41.5755 50.8945 41.7969C50.8555 42.0052 50.7513 42.3893 50.582 42.9492C51.0638 43.444 51.6693 43.8672 52.3984 44.2188V40.4883ZM48.375 37.3047L48.4531 35.6055V31.6992L48.375 30.2734L50.4258 30.3516H57.8867L59.8008 30.2734L59.7227 31.7383V35.7617L59.8008 37.3047L57.8086 37.2461H50.4844L48.375 37.3047ZM51.9297 35.1172H56.2266V34.6289H51.9297V35.1172ZM51.9297 32.9883H56.2266V32.5H51.9297V32.9883ZM73.4336 35.2344C73.4206 35.013 73.4141 34.8893 73.4141 34.8633L73.3359 34.043H77.0078C76.9818 34.4466 76.9688 34.7461 76.9688 34.9414L76.9492 36.6211C76.9362 37.0247 76.9167 37.4154 76.8906 37.793C76.8646 38.1576 76.819 38.7305 76.7539 39.5117H81.5391L82.5547 39.4531V42.7148L81.5 42.6562H77.6328C77.737 42.7214 77.8086 42.7669 77.8477 42.793C77.8997 42.806 78.0365 42.8516 78.2578 42.9297C78.4792 42.9948 78.9023 43.1771 79.5273 43.4766C80.1523 43.776 80.8099 44.082 81.5 44.3945C82.1901 44.694 82.7695 44.9544 83.2383 45.1758C82.7044 45.957 82.151 46.8945 81.5781 47.9883C81.0833 47.7018 80.7188 47.4935 80.4844 47.3633C80.263 47.2461 78.4857 46.4388 75.1523 44.9414C75.3477 44.6419 75.5495 44.3294 75.7578 44.0039C75.9792 43.6784 76.1484 43.4049 76.2656 43.1836C76.3828 42.9492 76.4805 42.7734 76.5586 42.6562H76.0898C75.3607 44.0365 74.5404 45.0586 73.6289 45.7227C72.7305 46.3997 71.6953 46.901 70.5234 47.2266C69.3646 47.5521 67.9779 47.8385 66.3633 48.0859C66.0378 46.8359 65.7578 45.9505 65.5234 45.4297L65.0352 44.3945C67.3138 44.3294 68.8568 44.1471 69.6641 43.8477C70.4844 43.5482 71.2331 43.151 71.9102 42.6562H66.4609L65.2109 42.7148V39.4531L66.3438 39.5117L68.375 39.5312C68.2839 39.4792 68.2188 39.4401 68.1797 39.4141L67.0664 38.7695L66.3047 38.3203C66.8125 37.7865 67.3984 36.9987 68.0625 35.957C69.599 36.8555 70.888 37.6302 71.9297 38.2812C71.5911 38.6458 71.2396 39.0625 70.875 39.5312L73.1602 39.5117C73.1992 39.2122 73.2253 38.9779 73.2383 38.8086C73.2643 38.6263 73.3034 38.0794 73.3555 37.168C73.4076 36.2435 73.4336 35.7227 73.4336 35.6055V35.332C73.2773 35.5143 73.0104 35.8268 72.6328 36.2695C72.2552 36.7122 71.9232 37.1354 71.6367 37.5391C70.556 36.7969 69.3125 36.0742 67.9062 35.3711C68.1536 35.1367 68.4531 34.7721 68.8047 34.2773C69.1693 33.7826 69.3581 33.5286 69.3711 33.5156H67.4375L65.7969 33.5938V30.1562L67.4766 30.2148H82.6523V33.3789L81.6367 36.8555C80.6471 36.5039 79.5273 36.3086 78.2773 36.2695L79.1172 33.5156H70.3867C71.9232 34.362 72.9388 34.9349 73.4336 35.2344ZM98.9609 37.0117C99.1432 37.2201 99.5208 37.5781 100.094 38.0859C100.667 38.5807 101.09 38.9193 101.363 39.1016C100.322 39.974 99.2734 40.7487 98.2188 41.4258C98.987 41.9987 99.6901 42.4154 100.328 42.6758C100.979 42.9232 101.865 43.2227 102.984 43.5742C102.333 44.681 101.897 45.5404 101.676 46.1523L101.363 46.9727C99.4622 46.2826 97.9844 45.5273 96.9297 44.707C96.8776 45.2279 96.7865 45.7878 96.6562 46.3867C96.526 46.9987 96.1484 47.4414 95.5234 47.7148C94.8984 48.0013 93.7266 48.1576 92.0078 48.1836C91.8906 47.4935 91.793 46.9792 91.7148 46.6406L91.4609 45.7422L91.4023 45.5273C90.3086 46.1523 88.6484 46.7904 86.4219 47.4414C86.0443 46.4779 85.7904 45.8724 85.6602 45.625L85.1328 44.707C86.9036 44.3034 88.3555 43.8802 89.4883 43.4375C90.6341 42.9818 91.8385 42.3112 93.1016 41.4258C93.0625 41.3346 93.0299 41.2435 93.0039 41.1523C92.7826 41.2826 92.3724 41.5365 91.7734 41.9141C91.1745 42.2786 90.4583 42.6237 89.625 42.9492C88.8047 43.2617 87.8086 43.5872 86.6367 43.9258C86.2201 43.0143 85.7839 42.1289 85.3281 41.2695C86.5391 41.0612 87.3789 40.8984 87.8477 40.7812C88.3164 40.6641 89.0065 40.4362 89.918 40.0977C90.8294 39.7461 91.526 39.3945 92.0078 39.043L91.9688 38.9648C91.8516 39.0039 91.7734 39.0299 91.7344 39.043L89.4883 39.8438C88.9284 40.026 87.8737 40.306 86.3242 40.6836C86.0378 39.668 85.8229 38.9974 85.6797 38.6719L85.3281 37.9102C87.2812 37.7669 89.0521 37.4674 90.6406 37.0117H88.7266L87.3008 37.0703V36.4844H85.3281L85.4062 34.7461V32.8516L85.3281 31.0742L87.0469 31.1328H92.1641C92.099 30.8203 92.0078 30.4753 91.8906 30.0977C92.9974 30.0586 94.2344 29.9544 95.6016 29.7852C95.6536 29.9935 95.6927 30.1497 95.7188 30.2539L95.8359 30.8789L95.8945 31.1328H100.797L102.672 31.0742L102.613 32.8906V34.6094L102.672 36.4453H100.758V37.0703L99.293 37.0117H98.9609ZM98.7656 37.0117H95.6406C95.4062 37.181 95.1719 37.3307 94.9375 37.4609C95.276 37.8646 95.6081 38.4245 95.9336 39.1406C96.6497 38.6849 97.1641 38.3464 97.4766 38.125C97.7891 37.9036 98.043 37.6953 98.2383 37.5C98.4336 37.3047 98.6094 37.1419 98.7656 37.0117ZM93.4922 44.1992C92.9844 44.6029 92.5417 44.8958 92.1641 45.0781C92.7891 45.1042 93.1602 45.0781 93.2773 45C93.4076 44.9219 93.4727 44.7917 93.4727 44.6094L93.4922 44.1992ZM88.668 34.0625V34.5117H99.293V34.0625H88.668Z" fill="#333333"/>
<path d="M13.928 64.035H14.709V65.102H18.977V65.85H14.709V67.247H18.218V70.778H10.936V67.247H13.928V64.035ZM17.426 70.041V67.995H11.728V70.041H17.426ZM10.914 71.262L11.585 71.581C11.167 72.538 10.694 73.363 10.144 74.067L9.495 73.594C10.045 72.945 10.518 72.164 10.914 71.262ZM13.312 71.581C13.532 72.307 13.73 73.099 13.906 73.946L13.114 74.122C12.96 73.22 12.784 72.428 12.575 71.735L13.312 71.581ZM15.611 71.471C15.941 72.219 16.227 73.044 16.469 73.924L15.688 74.1C15.468 73.165 15.193 72.34 14.863 71.625L15.611 71.471ZM17.866 71.251C18.57 72.175 19.098 72.978 19.472 73.66L18.812 74.122C18.427 73.374 17.899 72.56 17.228 71.658L17.866 71.251ZM21.496 65.641H25.093V64.09H25.907V65.641H29.46V66.4H25.907V68.226H30.362V68.996H25.907V72.879H28.503V69.953H29.262V74.122H28.503V73.616H21.749V69.953H22.508V72.879H25.093V68.996H20.649V68.226H25.093V66.4H21.496V65.641ZM36.335 65.707C36.005 66.312 35.587 66.851 35.103 67.324L34.619 66.697C35.389 65.949 35.906 65.047 36.17 63.969L36.962 64.068C36.874 64.387 36.786 64.684 36.687 64.959H40.911V65.597C40.592 66.323 40.24 66.939 39.855 67.445L39.261 66.983C39.558 66.62 39.822 66.191 40.064 65.707H36.335ZM32.441 64.255C33.189 64.728 33.827 65.201 34.344 65.685L33.794 66.224C33.343 65.762 32.716 65.278 31.913 64.772L32.441 64.255ZM34.102 66.939L34.707 67.39C33.904 68.369 33.068 69.183 32.199 69.832L31.682 69.249C32.573 68.589 33.376 67.819 34.102 66.939ZM40.119 70.118V74.111H39.349V73.583H33.695V74.111H32.925V70.118H40.119ZM33.695 72.835H39.349V70.866H33.695V72.835ZM37.556 66.037L38.304 66.114C38.26 66.389 38.216 66.653 38.15 66.895C38.612 67.973 39.745 68.721 41.549 69.15L41.164 69.832C39.525 69.392 38.414 68.677 37.831 67.698C37.666 67.995 37.468 68.27 37.237 68.512C36.709 69.04 35.785 69.469 34.465 69.777L34.168 69.084C35.312 68.842 36.126 68.49 36.621 68.028C37.127 67.555 37.446 66.895 37.556 66.037ZM46.653 67.225H50.019V72.263H46.653V67.225ZM49.271 71.581V70.052H47.423V71.581H49.271ZM47.423 69.392H49.271V67.907H47.423V69.392ZM47.379 63.98L48.171 64.09C48.072 64.475 47.951 64.838 47.819 65.19H52.153C52.153 69.205 52.098 71.691 51.999 72.637C51.889 73.55 51.361 74.012 50.437 74.012C50.239 74.012 49.887 74.001 49.392 73.979L49.205 73.264C49.645 73.286 50.019 73.308 50.338 73.308C50.844 73.308 51.141 72.978 51.229 72.329C51.306 71.636 51.35 69.502 51.372 65.938H47.478C47.093 66.675 46.609 67.335 46.015 67.907L45.52 67.269C46.444 66.367 47.06 65.278 47.379 63.98ZM43.782 64.123C44.508 64.684 45.135 65.245 45.641 65.817L45.102 66.367C44.64 65.828 44.024 65.256 43.232 64.662L43.782 64.123ZM42.462 67.379H44.838V72.252C45.19 71.944 45.564 71.581 45.971 71.174L46.191 72.01C45.553 72.648 44.871 73.209 44.145 73.704L43.837 73C43.991 72.857 44.079 72.692 44.079 72.516V68.138H42.462V67.379ZM54.694 67.511C55.53 67.852 56.3 68.259 56.993 68.732L56.586 69.37C55.849 68.82 55.09 68.38 54.309 68.072L54.694 67.511ZM55.706 65.971C56.542 66.312 57.29 66.719 57.972 67.203L57.565 67.83C56.839 67.28 56.102 66.84 55.332 66.532L55.706 65.971ZM58.742 65.971H59.523V68.281C59.501 68.886 59.424 69.436 59.303 69.942H63.395V70.712H59.039C58.962 70.888 58.874 71.064 58.786 71.229C60.392 71.933 61.844 72.692 63.153 73.528L62.614 74.122C61.25 73.253 59.842 72.483 58.39 71.823C58.335 71.889 58.28 71.966 58.225 72.032C57.422 72.901 56.113 73.583 54.298 74.067L53.847 73.363C55.673 72.89 56.938 72.263 57.664 71.482C57.862 71.24 58.027 70.987 58.159 70.712H53.792V69.942H58.478C58.632 69.436 58.72 68.875 58.742 68.281V65.971ZM54.21 64.662H62.592V65.157C62.427 65.817 62.207 66.466 61.943 67.115L61.195 66.906C61.426 66.455 61.613 65.949 61.767 65.399H54.21V64.662ZM71.227 69.81C71.007 69.876 70.776 69.942 70.556 69.997C70.732 70.536 70.831 71.108 70.842 71.713C70.842 72.582 70.721 73.187 70.49 73.517C70.226 73.891 69.61 74.089 68.664 74.089H68.29L68.026 73.396H68.554C69.203 73.385 69.61 73.286 69.775 73.099C69.973 72.857 70.072 72.395 70.072 71.713C70.061 71.515 70.05 71.339 70.028 71.163C68.796 72.131 67.19 72.912 65.199 73.517L64.803 72.835C66.981 72.197 68.675 71.394 69.874 70.404C69.786 70.118 69.687 69.843 69.555 69.579C68.521 70.393 67.113 71.053 65.331 71.559L64.935 70.877C66.783 70.393 68.213 69.777 69.214 69.007C69.082 68.798 68.928 68.611 68.774 68.435C68.686 68.479 68.609 68.512 68.532 68.556C67.773 68.908 66.772 69.26 65.54 69.612L65.133 68.963C66.189 68.732 67.146 68.435 67.993 68.072C68.389 67.896 68.774 67.72 69.126 67.522H66.211V66.785H72.8V67.522H70.281C69.973 67.731 69.676 67.929 69.379 68.105C69.764 68.501 70.072 68.93 70.303 69.392C71.326 69.106 72.294 68.666 73.218 68.061L73.757 68.6C73.174 68.985 72.547 69.315 71.865 69.579C72.382 70.965 73.229 72.065 74.395 72.89L73.834 73.539C72.624 72.56 71.755 71.317 71.227 69.81ZM69.632 63.936C69.764 64.244 69.885 64.596 70.006 64.981H74.142V66.895H73.361V65.718H65.639V66.895H64.858V64.981H69.214C69.093 64.651 68.961 64.343 68.829 64.079L69.632 63.936ZM85.032 64.662V74.1H84.262V73.418H80.654V74.111H79.895V64.662H85.032ZM80.654 72.67H84.262V70.723H80.654V72.67ZM80.654 69.986H84.262V68.039H80.654V69.986ZM80.654 67.302H84.262V65.41H80.654V67.302ZM77.959 68.347V74.089H77.178V68.512C76.804 69.568 76.331 70.514 75.737 71.372L75.429 70.591C76.232 69.524 76.804 68.303 77.156 66.928H75.627V66.169H77.178V64.024H77.959V66.169H79.378V66.928H77.959V67.511C78.465 68.039 78.971 68.633 79.477 69.282L79.048 69.92C78.63 69.282 78.267 68.754 77.959 68.347ZM89.41 64.057C89.85 64.629 90.268 65.245 90.664 65.927L89.949 66.29C89.553 65.586 89.135 64.959 88.684 64.409L89.41 64.057ZM93.546 63.958L94.305 64.167C94.041 64.959 93.711 65.674 93.315 66.301H95.581V67.071H91.907V67.588C91.885 68.138 91.841 68.655 91.753 69.117H96.219V69.887H92.215C92.754 71.372 94.173 72.527 96.483 73.352L96.021 74.089C93.601 73.11 92.105 71.779 91.511 70.107C91.302 70.734 91.027 71.284 90.675 71.757C89.927 72.725 88.706 73.484 87.012 74.023L86.583 73.33C88.266 72.791 89.443 72.076 90.103 71.196C90.367 70.8 90.576 70.371 90.73 69.887H86.781V69.117H90.928C91.027 68.633 91.082 68.127 91.093 67.588V67.071H87.408V66.301H92.435C92.853 65.663 93.216 64.882 93.546 63.958ZM105.701 74.034H104.524L104.326 73.297L105.536 73.319C105.954 73.319 106.163 73.077 106.163 72.593V65.421H101.895V64.651H106.966V72.802C106.966 73.616 106.537 74.034 105.701 74.034ZM98.034 65.839H98.837V74.111H98.034V65.839ZM100.498 67.423H104.458V71.559H100.498V67.423ZM103.655 70.8V68.182H101.301V70.8H103.655ZM99.673 63.925C100.179 64.53 100.641 65.19 101.037 65.916L100.333 66.279C99.915 65.509 99.442 64.838 98.936 64.244L99.673 63.925ZM116.085 73.176C117.185 73.176 118.01 73.154 118.56 73.132L118.428 73.924H116.261C113.621 73.924 111.982 73.781 111.322 73.495C110.739 73.253 110.222 72.802 109.771 72.164C109.573 72.868 109.298 73.517 108.946 74.111L108.374 73.605C108.968 72.604 109.287 71.482 109.342 70.228L110.046 70.316C110.024 70.69 109.991 71.031 109.936 71.361C110.222 71.812 110.541 72.164 110.882 72.417V69.744H108.704V69.018H113.368V69.744H111.586V70.91H113.093V71.614H111.586V72.813C111.652 72.835 111.707 72.857 111.751 72.879C112.389 73.077 113.83 73.176 116.085 73.176ZM109.199 64.442H112.95V68.281H109.199V64.442ZM112.18 67.621V66.686H109.969V67.621H112.18ZM109.969 66.07H112.18V65.102H109.969V66.07ZM113.522 64.453H118.274V65.179H116.294C116.261 65.487 116.217 65.773 116.151 66.059H117.966V70.503H117.229V66.741H114.567V70.503H113.863V66.059H115.436C115.502 65.773 115.546 65.476 115.579 65.179H113.522V64.453ZM116.69 70.536C117.372 71.064 117.944 71.592 118.406 72.12L117.845 72.67C117.438 72.164 116.877 71.614 116.162 71.042L116.69 70.536ZM115.535 67.258H116.261V68.809C116.239 69.854 116.03 70.69 115.656 71.317C115.282 71.9 114.666 72.351 113.83 72.681L113.401 71.999C114.193 71.713 114.743 71.317 115.062 70.822C115.348 70.305 115.513 69.634 115.535 68.809V67.258Z" fill="#666666"/>
<defs>
<linearGradient id="paint0_linear_25990_1546" x1="64" y1="0" x2="64" y2="40" gradientUnits="userSpaceOnUse">
<stop stop-color="#D9D9D9" stop-opacity="0"/>
<stop offset="1" stop-color="#737373" stop-opacity="0.5"/>
</linearGradient>
</defs>
</svg>
