<svg width="128" height="100" viewBox="0 0 128 100" fill="none" xmlns="http://www.w3.org/2000/svg">
<rect x="0.5" y="0.5" width="127" height="99" rx="5.5" fill="#F7F9FF" stroke="#586BF9"/>
<mask id="mask0_25990_1537" style="mask-type:alpha" maskUnits="userSpaceOnUse" x="0" y="0" width="128" height="100">
<rect width="128" height="100" fill="url(#paint0_linear_25990_1537)"/>
</mask>
<g mask="url(#mask0_25990_1537)">
<path opacity="0.2" d="M33.0977 15.9492H25.4609V13.6055C25.4609 12.5117 25.3633 11.8151 25.168 11.5156C24.9727 11.2161 24.6471 11.0664 24.1914 11.0664C23.6966 11.0664 23.319 11.2682 23.0586 11.6719C22.8112 12.0755 22.6875 12.6875 22.6875 13.5078C22.6875 14.5625 22.8307 15.3568 23.1172 15.8906C23.3906 16.4245 24.1654 17.069 25.4414 17.8242C29.1003 19.9987 31.4049 21.7826 32.3555 23.1758C33.306 24.569 33.7812 26.8151 33.7812 29.9141C33.7812 32.1667 33.5143 33.8268 32.9805 34.8945C32.4596 35.9622 31.444 36.8607 29.9336 37.5898C28.4232 38.306 26.6654 38.6641 24.6602 38.6641C22.4596 38.6641 20.5781 38.2474 19.0156 37.4141C17.4661 36.5807 16.4505 35.5195 15.9688 34.2305C15.487 32.9414 15.2461 31.112 15.2461 28.7422V26.6719H22.8828V30.5195C22.8828 31.7044 22.987 32.4661 23.1953 32.8047C23.4167 33.1432 23.8008 33.3125 24.3477 33.3125C24.8945 33.3125 25.2982 33.0977 25.5586 32.668C25.832 32.2383 25.9688 31.6003 25.9688 30.7539C25.9688 28.8919 25.7148 27.6745 25.207 27.1016C24.6862 26.5286 23.4036 25.5716 21.3594 24.2305C19.3151 22.8763 17.9609 21.8932 17.2969 21.2812C16.6328 20.6693 16.0794 19.8229 15.6367 18.7422C15.207 17.6615 14.9922 16.2812 14.9922 14.6016C14.9922 12.1797 15.2982 10.4089 15.9102 9.28906C16.5352 8.16927 17.5378 7.29688 18.918 6.67188C20.2982 6.03385 21.9648 5.71484 23.918 5.71484C26.0534 5.71484 27.8698 6.0599 29.3672 6.75C30.8776 7.4401 31.8737 8.3125 32.3555 9.36719C32.8503 10.4089 33.0977 12.1862 33.0977 14.6992V15.9492ZM54.0156 25.5H43.8008V31.1055C43.8008 32.2773 43.8854 33.0326 44.0547 33.3711C44.224 33.7096 44.5495 33.8789 45.0312 33.8789C45.6302 33.8789 46.0273 33.6576 46.2227 33.2148C46.431 32.7591 46.5352 31.8867 46.5352 30.5977V27.1797H54.0156V29.0938C54.0156 30.6953 53.9115 31.9258 53.7031 32.7852C53.5078 33.6445 53.0391 34.5625 52.2969 35.5391C51.5547 36.5156 50.6107 37.2513 49.4648 37.7461C48.332 38.2279 46.9062 38.4688 45.1875 38.4688C43.5208 38.4688 42.0495 38.2279 40.7734 37.7461C39.4974 37.2643 38.5013 36.6068 37.7852 35.7734C37.082 34.9271 36.5938 34.0026 36.3203 33C36.0469 31.9844 35.9102 30.513 35.9102 28.5859V21.0273C35.9102 18.7617 36.2161 16.9779 36.8281 15.6758C37.4401 14.3607 38.4427 13.3581 39.8359 12.668C41.2292 11.9648 42.8307 11.6133 44.6406 11.6133C46.8542 11.6133 48.6771 12.0365 50.1094 12.8828C51.5547 13.7161 52.5638 14.8294 53.1367 16.2227C53.7227 17.6029 54.0156 19.5495 54.0156 22.0625V25.5ZM46.1055 21.2812V19.3867C46.1055 18.0456 46.0339 17.1797 45.8906 16.7891C45.7474 16.3984 45.4544 16.2031 45.0117 16.2031C44.4648 16.2031 44.1263 16.3724 43.9961 16.7109C43.8659 17.0365 43.8008 17.9284 43.8008 19.3867V21.2812H46.1055ZM64.7383 6.37891V38H56.6133V6.37891H64.7383ZM75.7148 6.37891V38H67.5898V6.37891H75.7148ZM96.4375 25.5H86.2227V31.1055C86.2227 32.2773 86.3073 33.0326 86.4766 33.3711C86.6458 33.7096 86.9714 33.8789 87.4531 33.8789C88.0521 33.8789 88.4492 33.6576 88.6445 33.2148C88.8529 32.7591 88.957 31.8867 88.957 30.5977V27.1797H96.4375V29.0938C96.4375 30.6953 96.3333 31.9258 96.125 32.7852C95.9297 33.6445 95.4609 34.5625 94.7188 35.5391C93.9766 36.5156 93.0326 37.2513 91.8867 37.7461C90.7539 38.2279 89.3281 38.4688 87.6094 38.4688C85.9427 38.4688 84.4714 38.2279 83.1953 37.7461C81.9193 37.2643 80.9232 36.6068 80.207 35.7734C79.5039 34.9271 79.0156 34.0026 78.7422 33C78.4688 31.9844 78.332 30.513 78.332 28.5859V21.0273C78.332 18.7617 78.638 16.9779 79.25 15.6758C79.862 14.3607 80.8646 13.3581 82.2578 12.668C83.651 11.9648 85.2526 11.6133 87.0625 11.6133C89.276 11.6133 91.099 12.0365 92.5312 12.8828C93.9766 13.7161 94.9857 14.8294 95.5586 16.2227C96.1445 17.6029 96.4375 19.5495 96.4375 22.0625V25.5ZM88.5273 21.2812V19.3867C88.5273 18.0456 88.4557 17.1797 88.3125 16.7891C88.1693 16.3984 87.8763 16.2031 87.4336 16.2031C86.8867 16.2031 86.5482 16.3724 86.418 16.7109C86.2878 17.0365 86.2227 17.9284 86.2227 19.3867V21.2812H88.5273ZM106.926 12.082L106.613 15.4805C107.759 13.0456 109.419 11.7565 111.594 11.6133V20.7344C110.148 20.7344 109.087 20.9297 108.41 21.3203C107.733 21.7109 107.316 22.2578 107.16 22.9609C107.004 23.651 106.926 25.2526 106.926 27.7656V38H99.0352V12.082H106.926Z" fill="#586BF9"/>
</g>
<path d="M18.48 64.85H19.19V65.82H23.07V66.5H19.19V67.77H22.38V70.98H15.76V67.77H18.48V64.85ZM21.66 70.31V68.45H16.48V70.31H21.66ZM15.74 71.42L16.35 71.71C15.97 72.58 15.54 73.33 15.04 73.97L14.45 73.54C14.95 72.95 15.38 72.24 15.74 71.42ZM17.92 71.71C18.12 72.37 18.3 73.09 18.46 73.86L17.74 74.02C17.6 73.2 17.44 72.48 17.25 71.85L17.92 71.71ZM20.01 71.61C20.31 72.29 20.57 73.04 20.79 73.84L20.08 74C19.88 73.15 19.63 72.4 19.33 71.75L20.01 71.61ZM22.06 71.41C22.7 72.25 23.18 72.98 23.52 73.6L22.92 74.02C22.57 73.34 22.09 72.6 21.48 71.78L22.06 71.41ZM25.36 66.31H28.63V64.9H29.37V66.31H32.6V67H29.37V68.66H33.42V69.36H29.37V72.89H31.73V70.23H32.42V74.02H31.73V73.56H25.59V70.23H26.28V72.89H28.63V69.36H24.59V68.66H28.63V67H25.36V66.31ZM38.85 66.37C38.55 66.92 38.17 67.41 37.73 67.84L37.29 67.27C37.99 66.59 38.46 65.77 38.7 64.79L39.42 64.88C39.34 65.17 39.26 65.44 39.17 65.69H43.01V66.27C42.72 66.93 42.4 67.49 42.05 67.95L41.51 67.53C41.78 67.2 42.02 66.81 42.24 66.37H38.85ZM35.31 65.05C35.99 65.48 36.57 65.91 37.04 66.35L36.54 66.84C36.13 66.42 35.56 65.98 34.83 65.52L35.31 65.05ZM36.82 67.49L37.37 67.9C36.64 68.79 35.88 69.53 35.09 70.12L34.62 69.59C35.43 68.99 36.16 68.29 36.82 67.49ZM42.29 70.38V74.01H41.59V73.53H36.45V74.01H35.75V70.38H42.29ZM36.45 72.85H41.59V71.06H36.45V72.85ZM39.96 66.67L40.64 66.74C40.6 66.99 40.56 67.23 40.5 67.45C40.92 68.43 41.95 69.11 43.59 69.5L43.24 70.12C41.75 69.72 40.74 69.07 40.21 68.18C40.06 68.45 39.88 68.7 39.67 68.92C39.19 69.4 38.35 69.79 37.15 70.07L36.88 69.44C37.92 69.22 38.66 68.9 39.11 68.48C39.57 68.05 39.86 67.45 39.96 66.67ZM48.23 67.75H51.29V72.33H48.23V67.75ZM50.61 71.71V70.32H48.93V71.71H50.61ZM48.93 69.72H50.61V68.37H48.93V69.72ZM48.89 64.8L49.61 64.9C49.52 65.25 49.41 65.58 49.29 65.9H53.23C53.23 69.55 53.18 71.81 53.09 72.67C52.99 73.5 52.51 73.92 51.67 73.92C51.49 73.92 51.17 73.91 50.72 73.89L50.55 73.24C50.95 73.26 51.29 73.28 51.58 73.28C52.04 73.28 52.31 72.98 52.39 72.39C52.46 71.76 52.5 69.82 52.52 66.58H48.98C48.63 67.25 48.19 67.85 47.65 68.37L47.2 67.79C48.04 66.97 48.6 65.98 48.89 64.8ZM45.62 64.93C46.28 65.44 46.85 65.95 47.31 66.47L46.82 66.97C46.4 66.48 45.84 65.96 45.12 65.42L45.62 64.93ZM44.42 67.89H46.58V72.32C46.9 72.04 47.24 71.71 47.61 71.34L47.81 72.1C47.23 72.68 46.61 73.19 45.95 73.64L45.67 73C45.81 72.87 45.89 72.72 45.89 72.56V68.58H44.42V67.89ZM55.68 69.27C56.45 69.53 57.16 69.86 57.8 70.25L57.44 70.8C56.76 70.36 56.06 70.02 55.34 69.77L55.68 69.27ZM56.57 68.25C57.32 68.49 58.01 68.78 58.64 69.12L58.27 69.67C57.61 69.29 56.92 68.98 56.22 68.76L56.57 68.25ZM59.37 68.28H60.06V69.87C60.04 70.25 59.99 70.6 59.9 70.92H63.21V71.61H59.62C59.56 71.72 59.49 71.83 59.42 71.94C60.74 72.35 61.94 72.84 63.03 73.4L62.63 74.03C61.45 73.36 60.25 72.83 59.01 72.43C58.96 72.47 58.92 72.51 58.88 72.55C58.15 73.17 56.96 73.65 55.3 74L54.92 73.39C56.58 73.06 57.73 72.62 58.38 72.08C58.54 71.93 58.68 71.77 58.8 71.61H54.87V70.92H59.17C59.29 70.6 59.35 70.25 59.37 69.87V68.28ZM54.98 67.24H58.69V66.28H55.71V65.63H58.69V64.84H59.39V65.63H62.31V66.28H59.39V67.24H62.92V67.68C62.76 68.37 62.54 69.04 62.28 69.7L61.6 69.51C61.84 69.03 62.03 68.49 62.19 67.89H54.98V67.24ZM70.57 70.1C70.37 70.16 70.16 70.22 69.96 70.27C70.12 70.76 70.21 71.28 70.22 71.83C70.22 72.62 70.11 73.17 69.9 73.47C69.66 73.81 69.1 73.99 68.24 73.99H67.9L67.66 73.36H68.14C68.73 73.35 69.1 73.26 69.25 73.09C69.43 72.87 69.52 72.45 69.52 71.83C69.51 71.65 69.5 71.49 69.48 71.33C68.36 72.21 66.9 72.92 65.09 73.47L64.73 72.85C66.71 72.27 68.25 71.54 69.34 70.64C69.26 70.38 69.17 70.13 69.05 69.89C68.11 70.63 66.83 71.23 65.21 71.69L64.85 71.07C66.53 70.63 67.83 70.07 68.74 69.37C68.62 69.18 68.48 69.01 68.34 68.85C68.26 68.89 68.19 68.92 68.12 68.96C67.43 69.28 66.52 69.6 65.4 69.92L65.03 69.33C65.99 69.12 66.86 68.85 67.63 68.52C67.99 68.36 68.34 68.2 68.66 68.02H66.01V67.35H72V68.02H69.71C69.43 68.21 69.16 68.39 68.89 68.55C69.24 68.91 69.52 69.3 69.73 69.72C70.66 69.46 71.54 69.06 72.38 68.51L72.87 69C72.34 69.35 71.77 69.65 71.15 69.89C71.62 71.15 72.39 72.15 73.45 72.9L72.94 73.49C71.84 72.6 71.05 71.47 70.57 70.1ZM69.12 64.76C69.24 65.04 69.35 65.36 69.46 65.71H73.22V67.45H72.51V66.38H65.49V67.45H64.78V65.71H68.74C68.63 65.41 68.51 65.13 68.39 64.89L69.12 64.76ZM83.12 65.42V74H82.42V73.38H79.14V74.01H78.45V65.42H83.12ZM79.14 72.7H82.42V70.93H79.14V72.7ZM79.14 70.26H82.42V68.49H79.14V70.26ZM79.14 67.82H82.42V66.1H79.14V67.82ZM76.69 68.77V73.99H75.98V68.92C75.64 69.88 75.21 70.74 74.67 71.52L74.39 70.81C75.12 69.84 75.64 68.73 75.96 67.48H74.57V66.79H75.98V64.84H76.69V66.79H77.98V67.48H76.69V68.01C77.15 68.49 77.61 69.03 78.07 69.62L77.68 70.2C77.3 69.62 76.97 69.14 76.69 68.77ZM87.1 64.87C87.5 65.39 87.88 65.95 88.24 66.57L87.59 66.9C87.23 66.26 86.85 65.69 86.44 65.19L87.1 64.87ZM90.86 64.78L91.55 64.97C91.31 65.69 91.01 66.34 90.65 66.91H92.71V67.61H89.37V68.08C89.35 68.58 89.31 69.05 89.23 69.47H93.29V70.17H89.65C90.14 71.52 91.43 72.57 93.53 73.32L93.11 73.99C90.91 73.1 89.55 71.89 89.01 70.37C88.82 70.94 88.57 71.44 88.25 71.87C87.57 72.75 86.46 73.44 84.92 73.93L84.53 73.3C86.06 72.81 87.13 72.16 87.73 71.36C87.97 71 88.16 70.61 88.3 70.17H84.71V69.47H88.48C88.57 69.03 88.62 68.57 88.63 68.08V67.61H85.28V66.91H89.85C90.23 66.33 90.56 65.62 90.86 64.78ZM101.91 73.94H100.84L100.66 73.27L101.76 73.29C102.14 73.29 102.33 73.07 102.33 72.63V66.11H98.45V65.41H103.06V72.82C103.06 73.56 102.67 73.94 101.91 73.94ZM94.94 66.49H95.67V74.01H94.94V66.49ZM97.18 67.93H100.78V71.69H97.18V67.93ZM100.05 71V68.62H97.91V71H100.05ZM96.43 64.75C96.89 65.3 97.31 65.9 97.67 66.56L97.03 66.89C96.65 66.19 96.22 65.58 95.76 65.04L96.43 64.75ZM111.35 73.16C112.35 73.16 113.1 73.14 113.6 73.12L113.48 73.84H111.51C109.11 73.84 107.62 73.71 107.02 73.45C106.49 73.23 106.02 72.82 105.61 72.24C105.43 72.88 105.18 73.47 104.86 74.01L104.34 73.55C104.88 72.64 105.17 71.62 105.22 70.48L105.86 70.56C105.84 70.9 105.81 71.21 105.76 71.51C106.02 71.92 106.31 72.24 106.62 72.47V70.04H104.64V69.38H108.88V70.04H107.26V71.1H108.63V71.74H107.26V72.83C107.32 72.85 107.37 72.87 107.41 72.89C107.99 73.07 109.3 73.16 111.35 73.16ZM105.09 65.22H108.5V68.71H105.09V65.22ZM107.8 68.11V67.26H105.79V68.11H107.8ZM105.79 66.7H107.8V65.82H105.79V66.7ZM109.02 65.23H113.34V65.89H111.54C111.51 66.17 111.47 66.43 111.41 66.69H113.06V70.73H112.39V67.31H109.97V70.73H109.33V66.69H110.76C110.82 66.43 110.86 66.16 110.89 65.89H109.02V65.23ZM111.9 70.76C112.52 71.24 113.04 71.72 113.46 72.2L112.95 72.7C112.58 72.24 112.07 71.74 111.42 71.22L111.9 70.76ZM110.85 67.78H111.51V69.19C111.49 70.14 111.3 70.9 110.96 71.47C110.62 72 110.06 72.41 109.3 72.71L108.91 72.09C109.63 71.83 110.13 71.47 110.42 71.02C110.68 70.55 110.83 69.94 110.85 69.19V67.78Z" fill="#586BF9"/>
<path d="M28.4531 37.9883H26.9102L25.1328 38.0664V34.8828L26.9102 34.9414H28.4531V34.2969C28.375 34.3099 28.3229 34.3164 28.2969 34.3164L27.75 34.4336L26.5781 34.668C26.1094 33.5482 25.6471 32.513 25.1914 31.5625C26.7148 31.4062 28.1016 31.1654 29.3516 30.8398C30.6016 30.5143 31.2591 30.332 31.3242 30.293L32.1836 29.9219C33.0039 31.0807 33.7917 31.9792 34.5469 32.6172C34.5339 32.513 34.5273 32.3763 34.5273 32.207C34.5404 32.0378 34.5208 31.569 34.4688 30.8008C34.4167 30.0195 34.4492 29.681 34.5664 29.7852C35.5951 29.8372 36.7018 29.8372 37.8867 29.7852C37.8477 30.4753 37.8346 30.931 37.8477 31.1523V31.5625C38.3945 31.3151 39.1628 30.8789 40.1523 30.2539C40.7253 31.0221 41.3633 32.0638 42.0664 33.3789C41.4935 33.6914 40.9727 33.9648 40.5039 34.1992C40.0482 34.4336 39.6315 34.6615 39.2539 34.8828C39.0846 34.5052 38.8372 34.0039 38.5117 33.3789L37.9258 32.2656L37.8477 32.1289C37.8346 32.2461 37.8346 32.3242 37.8477 32.3633L37.8672 34.707V34.9414H40.9141L42.4961 34.8828V38.0664L40.9141 37.9883H38.043C38.043 38.1055 38.0495 38.1836 38.0625 38.2227L38.1016 38.4961L38.1602 39.0625L38.1992 39.2969L38.375 38.9453L38.8438 38.0078C40.3411 38.8281 41.2786 39.3424 41.6562 39.5508C41.526 39.7591 41.3438 40.0521 41.1094 40.4297C40.888 40.7943 40.7188 41.0742 40.6016 41.2695C40.4974 41.4518 40.0612 42.0898 39.293 43.1836C39.5404 43.5221 39.7096 43.724 39.8008 43.7891C39.9049 43.8542 40.0091 43.8672 40.1133 43.8281C40.2305 43.7891 40.2891 43.7174 40.2891 43.6133L40.3867 42.4805C40.9466 42.8841 41.4089 43.1901 41.7734 43.3984C42.151 43.6068 42.6458 43.7956 43.2578 43.9648C43.1927 44.3424 43.1276 44.6615 43.0625 44.9219C42.9974 45.1823 42.8542 45.6641 42.6328 46.3672C42.4115 47.0703 42.1185 47.5456 41.7539 47.793C41.3893 48.0534 40.8034 48.151 39.9961 48.0859C39.1888 48.0208 38.5312 47.7018 38.0234 47.1289C37.5286 46.556 37.1445 46.0677 36.8711 45.6641C36.3633 46.0286 35.901 46.3216 35.4844 46.543C35.0807 46.7773 34.4102 47.0768 33.4727 47.4414C32.8607 46.5951 32.3333 45.9115 31.8906 45.3906C31.8776 45.5469 31.8711 45.7682 31.8711 46.0547C31.8841 46.3542 31.7734 46.8034 31.5391 47.4023C31.3177 48.0013 29.8854 48.2747 27.2422 48.2227C27.1771 47.793 27.1315 47.4479 27.1055 47.1875C27.0794 46.9401 27.0664 46.8034 27.0664 46.7773L26.5 44.9805C26.9688 45.0456 27.3398 45.0651 27.6133 45.0391C27.9648 45.026 28.1927 44.9609 28.2969 44.8438C28.401 44.7266 28.4531 44.5378 28.4531 44.2773V43.2422C28.0755 43.3594 27.6523 43.5026 27.1836 43.6719C26.7279 43.8411 26.3177 43.9714 25.9531 44.0625C25.3932 42.2917 25.0547 41.1914 24.9375 40.7617C26.1875 40.4362 27.0404 40.2083 27.4961 40.0781C27.9648 39.9349 28.2839 39.8372 28.4531 39.7852V37.9883ZM34.3125 37.9883C34.3125 38.1055 34.3125 38.1901 34.3125 38.2422C34.3255 38.2812 34.332 38.3594 34.332 38.4766L34.3516 39.4922V40.2344L34.3906 41.4258C33.3229 41.7904 32.4831 42.0443 31.8711 42.1875L31.8906 44.6094C33.4401 44.0495 34.6445 43.3854 35.5039 42.6172C35.3346 42.1094 35.1784 41.556 35.0352 40.957C34.8919 40.3581 34.8073 39.9479 34.7812 39.7266L34.6836 38.7891C34.6576 38.5547 34.6445 38.431 34.6445 38.418L34.625 37.9883H34.3125ZM34.2539 37.9883H31.8711V38.75C32.7695 38.5026 33.5638 38.2487 34.2539 37.9883ZM31.8711 34.9414H34.5078C34.5078 34.4987 34.5143 34.082 34.5273 33.6914C34.5404 33.2878 34.5469 33.0273 34.5469 32.9102V32.6758C34.013 32.9102 33.1211 33.1966 31.8711 33.5352V34.9414ZM55.8945 40.4688V41.1328H58.4922L60.8555 41.0547V43.9844L58.4922 43.9062H55.8945V44.8242C58.8112 44.8242 61.2656 44.7396 63.2578 44.5703C63.1797 44.8698 63.1276 45.0911 63.1016 45.2344L62.8477 46.1523L62.5547 47.4023L62.457 47.7539C58.043 47.9232 55.1979 47.9427 53.9219 47.8125C52.6589 47.6953 51.7474 47.5326 51.1875 47.3242C50.6406 47.1159 49.9701 46.6536 49.1758 45.9375C48.681 46.7578 48.1211 47.4414 47.4961 47.9883C46.4023 46.9857 45.7383 46.4062 45.5039 46.25L44.625 45.6641C45.0156 45.3125 45.4323 44.9023 45.875 44.4336C46.3177 43.9518 46.6888 43.3138 46.9883 42.5195C47.2878 41.7253 47.4831 41.0547 47.5742 40.5078L45.2305 40.5469V37.4805L47.8281 37.5391H60.0352L62.9648 37.4805V40.5273L60.0352 40.4688H55.8945ZM52.3984 40.4883H49.5664C49.6706 40.5143 49.9115 40.5794 50.2891 40.6836C50.6797 40.7747 50.9401 40.8268 51.0703 40.8398C51.0052 41.2565 50.9466 41.5755 50.8945 41.7969C50.8555 42.0052 50.7513 42.3893 50.582 42.9492C51.0638 43.444 51.6693 43.8672 52.3984 44.2188V40.4883ZM48.375 37.3047L48.4531 35.6055V31.6992L48.375 30.2734L50.4258 30.3516H57.8867L59.8008 30.2734L59.7227 31.7383V35.7617L59.8008 37.3047L57.8086 37.2461H50.4844L48.375 37.3047ZM51.9297 35.1172H56.2266V34.6289H51.9297V35.1172ZM51.9297 32.9883H56.2266V32.5H51.9297V32.9883ZM72.6328 37.4805C73.0625 37.7669 73.4531 38.0208 73.8047 38.2422C73.1406 39.1276 72.6523 39.8307 72.3398 40.3516C71.181 39.5833 69.7487 38.763 68.043 37.8906L68.3945 37.4805H66.7344L65.3867 37.5391V34.3555L66.832 34.4141H72.3398V33.9453H68.6484L66.3828 34.0039V30.8203L68.6484 30.8789H72.3398L72.3008 29.7656H75.8359L75.7969 30.8789H79.4688L81.832 30.8203V34.0039L79.4688 33.9453H75.7969V34.4141H82.8867V37.1094C82.6654 37.9818 82.4375 38.8411 82.2031 39.6875C81.0703 39.3229 80.0221 39.069 79.0586 38.9258C79.2148 38.431 79.3581 37.9492 79.4883 37.4805H74.918C76.1289 37.6237 77.0078 37.7083 77.5547 37.7344C77.4115 38.6849 77.2292 39.7656 77.0078 40.9766L80.4844 40.957L82.7305 40.8984V44.1016L80.4844 44.0234H77.7891C78.8828 44.2969 79.8854 44.5312 80.7969 44.7266C81.7214 44.9219 82.5221 45.1172 83.1992 45.3125C82.8086 46.1458 82.4245 47.1159 82.0469 48.2227C80.4193 47.6497 78.0755 47.0573 75.0156 46.4453C75.276 46.0156 75.4648 45.6771 75.582 45.4297C75.6992 45.1953 75.8099 44.9414 75.9141 44.668C76.0312 44.3945 76.1289 44.1797 76.207 44.0234H75.9141C75.4453 44.8698 74.8854 45.5273 74.2344 45.9961C73.5833 46.4779 72.6849 46.888 71.5391 47.2266C70.3932 47.5781 68.6289 47.9167 66.2461 48.2422C65.9857 47.4479 65.7773 46.888 65.6211 46.5625C65.4648 46.25 65.1654 45.7227 64.7227 44.9805C65.7383 44.9805 66.7474 44.9219 67.75 44.8047C68.7526 44.6745 69.8203 44.4141 70.9531 44.0234H67.5547L65.5234 44.1016V40.8984L67.4766 40.9766C67.0208 40.7422 66.5391 40.4948 66.0312 40.2344C66.5911 39.5833 67.0924 38.8346 67.5352 37.9883C67.8737 38.1706 68.5833 38.5612 69.6641 39.1602L71.0508 39.9219L71.9883 40.5078L71.6367 40.9766H73.5508C73.6289 40.7552 73.694 40.4948 73.7461 40.1953L73.9023 39.2578C73.9935 38.75 74.0391 38.4635 74.0391 38.3984C74.0521 38.3203 74.0846 38.0143 74.1367 37.4805H72.6328ZM98.9609 37.0117C99.1432 37.2201 99.5208 37.5781 100.094 38.0859C100.667 38.5807 101.09 38.9193 101.363 39.1016C100.322 39.974 99.2734 40.7487 98.2188 41.4258C98.987 41.9987 99.6901 42.4154 100.328 42.6758C100.979 42.9232 101.865 43.2227 102.984 43.5742C102.333 44.681 101.897 45.5404 101.676 46.1523L101.363 46.9727C99.4622 46.2826 97.9844 45.5273 96.9297 44.707C96.8776 45.2279 96.7865 45.7878 96.6562 46.3867C96.526 46.9987 96.1484 47.4414 95.5234 47.7148C94.8984 48.0013 93.7266 48.1576 92.0078 48.1836C91.8906 47.4935 91.793 46.9792 91.7148 46.6406L91.4609 45.7422L91.4023 45.5273C90.3086 46.1523 88.6484 46.7904 86.4219 47.4414C86.0443 46.4779 85.7904 45.8724 85.6602 45.625L85.1328 44.707C86.9036 44.3034 88.3555 43.8802 89.4883 43.4375C90.6341 42.9818 91.8385 42.3112 93.1016 41.4258C93.0625 41.3346 93.0299 41.2435 93.0039 41.1523C92.7826 41.2826 92.3724 41.5365 91.7734 41.9141C91.1745 42.2786 90.4583 42.6237 89.625 42.9492C88.8047 43.2617 87.8086 43.5872 86.6367 43.9258C86.2201 43.0143 85.7839 42.1289 85.3281 41.2695C86.5391 41.0612 87.3789 40.8984 87.8477 40.7812C88.3164 40.6641 89.0065 40.4362 89.918 40.0977C90.8294 39.7461 91.526 39.3945 92.0078 39.043L91.9688 38.9648C91.8516 39.0039 91.7734 39.0299 91.7344 39.043L89.4883 39.8438C88.9284 40.026 87.8737 40.306 86.3242 40.6836C86.0378 39.668 85.8229 38.9974 85.6797 38.6719L85.3281 37.9102C87.2812 37.7669 89.0521 37.4674 90.6406 37.0117H88.7266L87.3008 37.0703V36.4844H85.3281L85.4062 34.7461V32.8516L85.3281 31.0742L87.0469 31.1328H92.1641C92.099 30.8203 92.0078 30.4753 91.8906 30.0977C92.9974 30.0586 94.2344 29.9544 95.6016 29.7852C95.6536 29.9935 95.6927 30.1497 95.7188 30.2539L95.8359 30.8789L95.8945 31.1328H100.797L102.672 31.0742L102.613 32.8906V34.6094L102.672 36.4453H100.758V37.0703L99.293 37.0117H98.9609ZM98.7656 37.0117H95.6406C95.4062 37.181 95.1719 37.3307 94.9375 37.4609C95.276 37.8646 95.6081 38.4245 95.9336 39.1406C96.6497 38.6849 97.1641 38.3464 97.4766 38.125C97.7891 37.9036 98.043 37.6953 98.2383 37.5C98.4336 37.3047 98.6094 37.1419 98.7656 37.0117ZM93.4922 44.1992C92.9844 44.6029 92.5417 44.8958 92.1641 45.0781C92.7891 45.1042 93.1602 45.0781 93.2773 45C93.4076 44.9219 93.4727 44.7917 93.4727 44.6094L93.4922 44.1992ZM88.668 34.0625V34.5117H99.293V34.0625H88.668Z" fill="#586BF9"/>
<defs>
<linearGradient id="paint0_linear_25990_1537" x1="64" y1="0" x2="64" y2="38.5" gradientUnits="userSpaceOnUse">
<stop stop-color="#586BF9" stop-opacity="0"/>
<stop offset="1" stop-color="#586BF9" stop-opacity="0.5"/>
</linearGradient>
</defs>
</svg>
