<svg width="128" height="100" viewBox="0 0 128 100" fill="none" xmlns="http://www.w3.org/2000/svg">
<rect x="0.5" y="0.5" width="127" height="99" rx="5.5" fill="#F7F9FF" stroke="#E5E5E5"/>
<mask id="mask0_25968_3516" style="mask-type:alpha" maskUnits="userSpaceOnUse" x="0" y="0" width="128" height="100">
<rect width="128" height="100" fill="url(#paint0_linear_25968_3516)"/>
</mask>
<g mask="url(#mask0_25968_3516)">
<path opacity="0.2" d="M34.0625 15.9492H26.4258V13.6055C26.4258 12.5117 26.3281 11.8151 26.1328 11.5156C25.9375 11.2161 25.612 11.0664 25.1562 11.0664C24.6615 11.0664 24.2839 11.2682 24.0234 11.6719C23.776 12.0755 23.6523 12.6875 23.6523 13.5078C23.6523 14.5625 23.7956 15.3568 24.082 15.8906C24.3555 16.4245 25.1302 17.069 26.4062 17.8242C30.0651 19.9987 32.3698 21.7826 33.3203 23.1758C34.2708 24.569 34.7461 26.8151 34.7461 29.9141C34.7461 32.1667 34.4792 33.8268 33.9453 34.8945C33.4245 35.9622 32.4089 36.8607 30.8984 37.5898C29.388 38.306 27.6302 38.6641 25.625 38.6641C23.4245 38.6641 21.543 38.2474 19.9805 37.4141C18.431 36.5807 17.4154 35.5195 16.9336 34.2305C16.4518 32.9414 16.2109 31.112 16.2109 28.7422V26.6719H23.8477V30.5195C23.8477 31.7044 23.9518 32.4661 24.1602 32.8047C24.3815 33.1432 24.7656 33.3125 25.3125 33.3125C25.8594 33.3125 26.263 33.0977 26.5234 32.668C26.7969 32.2383 26.9336 31.6003 26.9336 30.7539C26.9336 28.8919 26.6797 27.6745 26.1719 27.1016C25.651 26.5286 24.3685 25.5716 22.3242 24.2305C20.2799 22.8763 18.9258 21.8932 18.2617 21.2812C17.5977 20.6693 17.0443 19.8229 16.6016 18.7422C16.1719 17.6615 15.957 16.2812 15.957 14.6016C15.957 12.1797 16.263 10.4089 16.875 9.28906C17.5 8.16927 18.5026 7.29688 19.8828 6.67188C21.263 6.03385 22.9297 5.71484 24.8828 5.71484C27.0182 5.71484 28.8346 6.0599 30.332 6.75C31.8424 7.4401 32.8385 8.3125 33.3203 9.36719C33.8151 10.4089 34.0625 12.1862 34.0625 14.6992V15.9492ZM54.9805 25.5H44.7656V31.1055C44.7656 32.2773 44.8503 33.0326 45.0195 33.3711C45.1888 33.7096 45.5143 33.8789 45.9961 33.8789C46.5951 33.8789 46.9922 33.6576 47.1875 33.2148C47.3958 32.7591 47.5 31.8867 47.5 30.5977V27.1797H54.9805V29.0938C54.9805 30.6953 54.8763 31.9258 54.668 32.7852C54.4727 33.6445 54.0039 34.5625 53.2617 35.5391C52.5195 36.5156 51.5755 37.2513 50.4297 37.7461C49.2969 38.2279 47.8711 38.4688 46.1523 38.4688C44.4857 38.4688 43.0143 38.2279 41.7383 37.7461C40.4622 37.2643 39.4661 36.6068 38.75 35.7734C38.0469 34.9271 37.5586 34.0026 37.2852 33C37.0117 31.9844 36.875 30.513 36.875 28.5859V21.0273C36.875 18.7617 37.181 16.9779 37.793 15.6758C38.4049 14.3607 39.4076 13.3581 40.8008 12.668C42.194 11.9648 43.7956 11.6133 45.6055 11.6133C47.819 11.6133 49.6419 12.0365 51.0742 12.8828C52.5195 13.7161 53.5286 14.8294 54.1016 16.2227C54.6875 17.6029 54.9805 19.5495 54.9805 22.0625V25.5ZM47.0703 21.2812V19.3867C47.0703 18.0456 46.9987 17.1797 46.8555 16.7891C46.7122 16.3984 46.4193 16.2031 45.9766 16.2031C45.4297 16.2031 45.0911 16.3724 44.9609 16.7109C44.8307 17.0365 44.7656 17.9284 44.7656 19.3867V21.2812H47.0703ZM65.7031 6.37891V38H57.5781V6.37891H65.7031ZM76.6797 6.37891V38H68.5547V6.37891H76.6797ZM97.4023 25.5H87.1875V31.1055C87.1875 32.2773 87.2721 33.0326 87.4414 33.3711C87.6107 33.7096 87.9362 33.8789 88.418 33.8789C89.0169 33.8789 89.4141 33.6576 89.6094 33.2148C89.8177 32.7591 89.9219 31.8867 89.9219 30.5977V27.1797H97.4023V29.0938C97.4023 30.6953 97.2982 31.9258 97.0898 32.7852C96.8945 33.6445 96.4258 34.5625 95.6836 35.5391C94.9414 36.5156 93.9974 37.2513 92.8516 37.7461C91.7188 38.2279 90.293 38.4688 88.5742 38.4688C86.9076 38.4688 85.4362 38.2279 84.1602 37.7461C82.8841 37.2643 81.888 36.6068 81.1719 35.7734C80.4688 34.9271 79.9805 34.0026 79.707 33C79.4336 31.9844 79.2969 30.513 79.2969 28.5859V21.0273C79.2969 18.7617 79.6029 16.9779 80.2148 15.6758C80.8268 14.3607 81.8294 13.3581 83.2227 12.668C84.6159 11.9648 86.2174 11.6133 88.0273 11.6133C90.2409 11.6133 92.0638 12.0365 93.4961 12.8828C94.9414 13.7161 95.9505 14.8294 96.5234 16.2227C97.1094 17.6029 97.4023 19.5495 97.4023 22.0625V25.5ZM89.4922 21.2812V19.3867C89.4922 18.0456 89.4206 17.1797 89.2773 16.7891C89.1341 16.3984 88.8411 16.2031 88.3984 16.2031C87.8516 16.2031 87.513 16.3724 87.3828 16.7109C87.2526 17.0365 87.1875 17.9284 87.1875 19.3867V21.2812H89.4922ZM107.891 12.082L107.578 15.4805C108.724 13.0456 110.384 11.7565 112.559 11.6133V20.7344C111.113 20.7344 110.052 20.9297 109.375 21.3203C108.698 21.7109 108.281 22.2578 108.125 22.9609C107.969 23.651 107.891 25.2526 107.891 27.7656V38H100V12.082H107.891Z" fill="black"/>
</g>
<path d="M28.4531 37.9883H26.9102L25.1328 38.0664V34.8828L26.9102 34.9414H28.4531V34.2969C28.375 34.3099 28.3229 34.3164 28.2969 34.3164L27.75 34.4336L26.5781 34.668C26.1094 33.5482 25.6471 32.513 25.1914 31.5625C26.7148 31.4062 28.1016 31.1654 29.3516 30.8398C30.6016 30.5143 31.2591 30.332 31.3242 30.293L32.1836 29.9219C33.0039 31.0807 33.7917 31.9792 34.5469 32.6172C34.5339 32.513 34.5273 32.3763 34.5273 32.207C34.5404 32.0378 34.5208 31.569 34.4688 30.8008C34.4167 30.0195 34.4492 29.681 34.5664 29.7852C35.5951 29.8372 36.7018 29.8372 37.8867 29.7852C37.8477 30.4753 37.8346 30.931 37.8477 31.1523V31.5625C38.3945 31.3151 39.1628 30.8789 40.1523 30.2539C40.7253 31.0221 41.3633 32.0638 42.0664 33.3789C41.4935 33.6914 40.9727 33.9648 40.5039 34.1992C40.0482 34.4336 39.6315 34.6615 39.2539 34.8828C39.0846 34.5052 38.8372 34.0039 38.5117 33.3789L37.9258 32.2656L37.8477 32.1289C37.8346 32.2461 37.8346 32.3242 37.8477 32.3633L37.8672 34.707V34.9414H40.9141L42.4961 34.8828V38.0664L40.9141 37.9883H38.043C38.043 38.1055 38.0495 38.1836 38.0625 38.2227L38.1016 38.4961L38.1602 39.0625L38.1992 39.2969L38.375 38.9453L38.8438 38.0078C40.3411 38.8281 41.2786 39.3424 41.6562 39.5508C41.526 39.7591 41.3438 40.0521 41.1094 40.4297C40.888 40.7943 40.7188 41.0742 40.6016 41.2695C40.4974 41.4518 40.0612 42.0898 39.293 43.1836C39.5404 43.5221 39.7096 43.724 39.8008 43.7891C39.9049 43.8542 40.0091 43.8672 40.1133 43.8281C40.2305 43.7891 40.2891 43.7174 40.2891 43.6133L40.3867 42.4805C40.9466 42.8841 41.4089 43.1901 41.7734 43.3984C42.151 43.6068 42.6458 43.7956 43.2578 43.9648C43.1927 44.3424 43.1276 44.6615 43.0625 44.9219C42.9974 45.1823 42.8542 45.6641 42.6328 46.3672C42.4115 47.0703 42.1185 47.5456 41.7539 47.793C41.3893 48.0534 40.8034 48.151 39.9961 48.0859C39.1888 48.0208 38.5312 47.7018 38.0234 47.1289C37.5286 46.556 37.1445 46.0677 36.8711 45.6641C36.3633 46.0286 35.901 46.3216 35.4844 46.543C35.0807 46.7773 34.4102 47.0768 33.4727 47.4414C32.8607 46.5951 32.3333 45.9115 31.8906 45.3906C31.8776 45.5469 31.8711 45.7682 31.8711 46.0547C31.8841 46.3542 31.7734 46.8034 31.5391 47.4023C31.3177 48.0013 29.8854 48.2747 27.2422 48.2227C27.1771 47.793 27.1315 47.4479 27.1055 47.1875C27.0794 46.9401 27.0664 46.8034 27.0664 46.7773L26.5 44.9805C26.9688 45.0456 27.3398 45.0651 27.6133 45.0391C27.9648 45.026 28.1927 44.9609 28.2969 44.8438C28.401 44.7266 28.4531 44.5378 28.4531 44.2773V43.2422C28.0755 43.3594 27.6523 43.5026 27.1836 43.6719C26.7279 43.8411 26.3177 43.9714 25.9531 44.0625C25.3932 42.2917 25.0547 41.1914 24.9375 40.7617C26.1875 40.4362 27.0404 40.2083 27.4961 40.0781C27.9648 39.9349 28.2839 39.8372 28.4531 39.7852V37.9883ZM34.3125 37.9883C34.3125 38.1055 34.3125 38.1901 34.3125 38.2422C34.3255 38.2812 34.332 38.3594 34.332 38.4766L34.3516 39.4922V40.2344L34.3906 41.4258C33.3229 41.7904 32.4831 42.0443 31.8711 42.1875L31.8906 44.6094C33.4401 44.0495 34.6445 43.3854 35.5039 42.6172C35.3346 42.1094 35.1784 41.556 35.0352 40.957C34.8919 40.3581 34.8073 39.9479 34.7812 39.7266L34.6836 38.7891C34.6576 38.5547 34.6445 38.431 34.6445 38.418L34.625 37.9883H34.3125ZM34.2539 37.9883H31.8711V38.75C32.7695 38.5026 33.5638 38.2487 34.2539 37.9883ZM31.8711 34.9414H34.5078C34.5078 34.4987 34.5143 34.082 34.5273 33.6914C34.5404 33.2878 34.5469 33.0273 34.5469 32.9102V32.6758C34.013 32.9102 33.1211 33.1966 31.8711 33.5352V34.9414ZM55.8945 40.4688V41.1328H58.4922L60.8555 41.0547V43.9844L58.4922 43.9062H55.8945V44.8242C58.8112 44.8242 61.2656 44.7396 63.2578 44.5703C63.1797 44.8698 63.1276 45.0911 63.1016 45.2344L62.8477 46.1523L62.5547 47.4023L62.457 47.7539C58.043 47.9232 55.1979 47.9427 53.9219 47.8125C52.6589 47.6953 51.7474 47.5326 51.1875 47.3242C50.6406 47.1159 49.9701 46.6536 49.1758 45.9375C48.681 46.7578 48.1211 47.4414 47.4961 47.9883C46.4023 46.9857 45.7383 46.4062 45.5039 46.25L44.625 45.6641C45.0156 45.3125 45.4323 44.9023 45.875 44.4336C46.3177 43.9518 46.6888 43.3138 46.9883 42.5195C47.2878 41.7253 47.4831 41.0547 47.5742 40.5078L45.2305 40.5469V37.4805L47.8281 37.5391H60.0352L62.9648 37.4805V40.5273L60.0352 40.4688H55.8945ZM52.3984 40.4883H49.5664C49.6706 40.5143 49.9115 40.5794 50.2891 40.6836C50.6797 40.7747 50.9401 40.8268 51.0703 40.8398C51.0052 41.2565 50.9466 41.5755 50.8945 41.7969C50.8555 42.0052 50.7513 42.3893 50.582 42.9492C51.0638 43.444 51.6693 43.8672 52.3984 44.2188V40.4883ZM48.375 37.3047L48.4531 35.6055V31.6992L48.375 30.2734L50.4258 30.3516H57.8867L59.8008 30.2734L59.7227 31.7383V35.7617L59.8008 37.3047L57.8086 37.2461H50.4844L48.375 37.3047ZM51.9297 35.1172H56.2266V34.6289H51.9297V35.1172ZM51.9297 32.9883H56.2266V32.5H51.9297V32.9883ZM72.6328 37.4805C73.0625 37.7669 73.4531 38.0208 73.8047 38.2422C73.1406 39.1276 72.6523 39.8307 72.3398 40.3516C71.181 39.5833 69.7487 38.763 68.043 37.8906L68.3945 37.4805H66.7344L65.3867 37.5391V34.3555L66.832 34.4141H72.3398V33.9453H68.6484L66.3828 34.0039V30.8203L68.6484 30.8789H72.3398L72.3008 29.7656H75.8359L75.7969 30.8789H79.4688L81.832 30.8203V34.0039L79.4688 33.9453H75.7969V34.4141H82.8867V37.1094C82.6654 37.9818 82.4375 38.8411 82.2031 39.6875C81.0703 39.3229 80.0221 39.069 79.0586 38.9258C79.2148 38.431 79.3581 37.9492 79.4883 37.4805H74.918C76.1289 37.6237 77.0078 37.7083 77.5547 37.7344C77.4115 38.6849 77.2292 39.7656 77.0078 40.9766L80.4844 40.957L82.7305 40.8984V44.1016L80.4844 44.0234H77.7891C78.8828 44.2969 79.8854 44.5312 80.7969 44.7266C81.7214 44.9219 82.5221 45.1172 83.1992 45.3125C82.8086 46.1458 82.4245 47.1159 82.0469 48.2227C80.4193 47.6497 78.0755 47.0573 75.0156 46.4453C75.276 46.0156 75.4648 45.6771 75.582 45.4297C75.6992 45.1953 75.8099 44.9414 75.9141 44.668C76.0312 44.3945 76.1289 44.1797 76.207 44.0234H75.9141C75.4453 44.8698 74.8854 45.5273 74.2344 45.9961C73.5833 46.4779 72.6849 46.888 71.5391 47.2266C70.3932 47.5781 68.6289 47.9167 66.2461 48.2422C65.9857 47.4479 65.7773 46.888 65.6211 46.5625C65.4648 46.25 65.1654 45.7227 64.7227 44.9805C65.7383 44.9805 66.7474 44.9219 67.75 44.8047C68.7526 44.6745 69.8203 44.4141 70.9531 44.0234H67.5547L65.5234 44.1016V40.8984L67.4766 40.9766C67.0208 40.7422 66.5391 40.4948 66.0312 40.2344C66.5911 39.5833 67.0924 38.8346 67.5352 37.9883C67.8737 38.1706 68.5833 38.5612 69.6641 39.1602L71.0508 39.9219L71.9883 40.5078L71.6367 40.9766H73.5508C73.6289 40.7552 73.694 40.4948 73.7461 40.1953L73.9023 39.2578C73.9935 38.75 74.0391 38.4635 74.0391 38.3984C74.0521 38.3203 74.0846 38.0143 74.1367 37.4805H72.6328ZM98.9609 37.0117C99.1432 37.2201 99.5208 37.5781 100.094 38.0859C100.667 38.5807 101.09 38.9193 101.363 39.1016C100.322 39.974 99.2734 40.7487 98.2188 41.4258C98.987 41.9987 99.6901 42.4154 100.328 42.6758C100.979 42.9232 101.865 43.2227 102.984 43.5742C102.333 44.681 101.897 45.5404 101.676 46.1523L101.363 46.9727C99.4622 46.2826 97.9844 45.5273 96.9297 44.707C96.8776 45.2279 96.7865 45.7878 96.6562 46.3867C96.526 46.9987 96.1484 47.4414 95.5234 47.7148C94.8984 48.0013 93.7266 48.1576 92.0078 48.1836C91.8906 47.4935 91.793 46.9792 91.7148 46.6406L91.4609 45.7422L91.4023 45.5273C90.3086 46.1523 88.6484 46.7904 86.4219 47.4414C86.0443 46.4779 85.7904 45.8724 85.6602 45.625L85.1328 44.707C86.9036 44.3034 88.3555 43.8802 89.4883 43.4375C90.6341 42.9818 91.8385 42.3112 93.1016 41.4258C93.0625 41.3346 93.0299 41.2435 93.0039 41.1523C92.7826 41.2826 92.3724 41.5365 91.7734 41.9141C91.1745 42.2786 90.4583 42.6237 89.625 42.9492C88.8047 43.2617 87.8086 43.5872 86.6367 43.9258C86.2201 43.0143 85.7839 42.1289 85.3281 41.2695C86.5391 41.0612 87.3789 40.8984 87.8477 40.7812C88.3164 40.6641 89.0065 40.4362 89.918 40.0977C90.8294 39.7461 91.526 39.3945 92.0078 39.043L91.9688 38.9648C91.8516 39.0039 91.7734 39.0299 91.7344 39.043L89.4883 39.8438C88.9284 40.026 87.8737 40.306 86.3242 40.6836C86.0378 39.668 85.8229 38.9974 85.6797 38.6719L85.3281 37.9102C87.2812 37.7669 89.0521 37.4674 90.6406 37.0117H88.7266L87.3008 37.0703V36.4844H85.3281L85.4062 34.7461V32.8516L85.3281 31.0742L87.0469 31.1328H92.1641C92.099 30.8203 92.0078 30.4753 91.8906 30.0977C92.9974 30.0586 94.2344 29.9544 95.6016 29.7852C95.6536 29.9935 95.6927 30.1497 95.7188 30.2539L95.8359 30.8789L95.8945 31.1328H100.797L102.672 31.0742L102.613 32.8906V34.6094L102.672 36.4453H100.758V37.0703L99.293 37.0117H98.9609ZM98.7656 37.0117H95.6406C95.4062 37.181 95.1719 37.3307 94.9375 37.4609C95.276 37.8646 95.6081 38.4245 95.9336 39.1406C96.6497 38.6849 97.1641 38.3464 97.4766 38.125C97.7891 37.9036 98.043 37.6953 98.2383 37.5C98.4336 37.3047 98.6094 37.1419 98.7656 37.0117ZM93.4922 44.1992C92.9844 44.6029 92.5417 44.8958 92.1641 45.0781C92.7891 45.1042 93.1602 45.0781 93.2773 45C93.4076 44.9219 93.4727 44.7917 93.4727 44.6094L93.4922 44.1992ZM88.668 34.0625V34.5117H99.293V34.0625H88.668Z" fill="#333333"/>
<path d="M13.928 64.035H14.709V65.102H18.977V65.85H14.709V67.247H18.218V70.778H10.936V67.247H13.928V64.035ZM17.426 70.041V67.995H11.728V70.041H17.426ZM10.914 71.262L11.585 71.581C11.167 72.538 10.694 73.363 10.144 74.067L9.495 73.594C10.045 72.945 10.518 72.164 10.914 71.262ZM13.312 71.581C13.532 72.307 13.73 73.099 13.906 73.946L13.114 74.122C12.96 73.22 12.784 72.428 12.575 71.735L13.312 71.581ZM15.611 71.471C15.941 72.219 16.227 73.044 16.469 73.924L15.688 74.1C15.468 73.165 15.193 72.34 14.863 71.625L15.611 71.471ZM17.866 71.251C18.57 72.175 19.098 72.978 19.472 73.66L18.812 74.122C18.427 73.374 17.899 72.56 17.228 71.658L17.866 71.251ZM21.496 65.641H25.093V64.09H25.907V65.641H29.46V66.4H25.907V68.226H30.362V68.996H25.907V72.879H28.503V69.953H29.262V74.122H28.503V73.616H21.749V69.953H22.508V72.879H25.093V68.996H20.649V68.226H25.093V66.4H21.496V65.641ZM36.335 65.707C36.005 66.312 35.587 66.851 35.103 67.324L34.619 66.697C35.389 65.949 35.906 65.047 36.17 63.969L36.962 64.068C36.874 64.387 36.786 64.684 36.687 64.959H40.911V65.597C40.592 66.323 40.24 66.939 39.855 67.445L39.261 66.983C39.558 66.62 39.822 66.191 40.064 65.707H36.335ZM32.441 64.255C33.189 64.728 33.827 65.201 34.344 65.685L33.794 66.224C33.343 65.762 32.716 65.278 31.913 64.772L32.441 64.255ZM34.102 66.939L34.707 67.39C33.904 68.369 33.068 69.183 32.199 69.832L31.682 69.249C32.573 68.589 33.376 67.819 34.102 66.939ZM40.119 70.118V74.111H39.349V73.583H33.695V74.111H32.925V70.118H40.119ZM33.695 72.835H39.349V70.866H33.695V72.835ZM37.556 66.037L38.304 66.114C38.26 66.389 38.216 66.653 38.15 66.895C38.612 67.973 39.745 68.721 41.549 69.15L41.164 69.832C39.525 69.392 38.414 68.677 37.831 67.698C37.666 67.995 37.468 68.27 37.237 68.512C36.709 69.04 35.785 69.469 34.465 69.777L34.168 69.084C35.312 68.842 36.126 68.49 36.621 68.028C37.127 67.555 37.446 66.895 37.556 66.037ZM46.653 67.225H50.019V72.263H46.653V67.225ZM49.271 71.581V70.052H47.423V71.581H49.271ZM47.423 69.392H49.271V67.907H47.423V69.392ZM47.379 63.98L48.171 64.09C48.072 64.475 47.951 64.838 47.819 65.19H52.153C52.153 69.205 52.098 71.691 51.999 72.637C51.889 73.55 51.361 74.012 50.437 74.012C50.239 74.012 49.887 74.001 49.392 73.979L49.205 73.264C49.645 73.286 50.019 73.308 50.338 73.308C50.844 73.308 51.141 72.978 51.229 72.329C51.306 71.636 51.35 69.502 51.372 65.938H47.478C47.093 66.675 46.609 67.335 46.015 67.907L45.52 67.269C46.444 66.367 47.06 65.278 47.379 63.98ZM43.782 64.123C44.508 64.684 45.135 65.245 45.641 65.817L45.102 66.367C44.64 65.828 44.024 65.256 43.232 64.662L43.782 64.123ZM42.462 67.379H44.838V72.252C45.19 71.944 45.564 71.581 45.971 71.174L46.191 72.01C45.553 72.648 44.871 73.209 44.145 73.704L43.837 73C43.991 72.857 44.079 72.692 44.079 72.516V68.138H42.462V67.379ZM54.848 68.897C55.695 69.183 56.476 69.546 57.18 69.975L56.784 70.58C56.036 70.096 55.266 69.722 54.474 69.447L54.848 68.897ZM55.827 67.775C56.652 68.039 57.411 68.358 58.104 68.732L57.697 69.337C56.971 68.919 56.212 68.578 55.442 68.336L55.827 67.775ZM58.907 67.808H59.666V69.557C59.644 69.975 59.589 70.36 59.49 70.712H63.131V71.471H59.182C59.116 71.592 59.039 71.713 58.962 71.834C60.414 72.285 61.734 72.824 62.933 73.44L62.493 74.133C61.195 73.396 59.875 72.813 58.511 72.373C58.456 72.417 58.412 72.461 58.368 72.505C57.565 73.187 56.256 73.715 54.43 74.1L54.012 73.429C55.838 73.066 57.103 72.582 57.818 71.988C57.994 71.823 58.148 71.647 58.28 71.471H53.957V70.712H58.687C58.819 70.36 58.885 69.975 58.907 69.557V67.808ZM54.078 66.664H58.159V65.608H54.881V64.893H58.159V64.024H58.929V64.893H62.141V65.608H58.929V66.664H62.812V67.148C62.636 67.907 62.394 68.644 62.108 69.37L61.36 69.161C61.624 68.633 61.833 68.039 62.009 67.379H54.078V66.664ZM71.227 69.81C71.007 69.876 70.776 69.942 70.556 69.997C70.732 70.536 70.831 71.108 70.842 71.713C70.842 72.582 70.721 73.187 70.49 73.517C70.226 73.891 69.61 74.089 68.664 74.089H68.29L68.026 73.396H68.554C69.203 73.385 69.61 73.286 69.775 73.099C69.973 72.857 70.072 72.395 70.072 71.713C70.061 71.515 70.05 71.339 70.028 71.163C68.796 72.131 67.19 72.912 65.199 73.517L64.803 72.835C66.981 72.197 68.675 71.394 69.874 70.404C69.786 70.118 69.687 69.843 69.555 69.579C68.521 70.393 67.113 71.053 65.331 71.559L64.935 70.877C66.783 70.393 68.213 69.777 69.214 69.007C69.082 68.798 68.928 68.611 68.774 68.435C68.686 68.479 68.609 68.512 68.532 68.556C67.773 68.908 66.772 69.26 65.54 69.612L65.133 68.963C66.189 68.732 67.146 68.435 67.993 68.072C68.389 67.896 68.774 67.72 69.126 67.522H66.211V66.785H72.8V67.522H70.281C69.973 67.731 69.676 67.929 69.379 68.105C69.764 68.501 70.072 68.93 70.303 69.392C71.326 69.106 72.294 68.666 73.218 68.061L73.757 68.6C73.174 68.985 72.547 69.315 71.865 69.579C72.382 70.965 73.229 72.065 74.395 72.89L73.834 73.539C72.624 72.56 71.755 71.317 71.227 69.81ZM69.632 63.936C69.764 64.244 69.885 64.596 70.006 64.981H74.142V66.895H73.361V65.718H65.639V66.895H64.858V64.981H69.214C69.093 64.651 68.961 64.343 68.829 64.079L69.632 63.936ZM85.032 64.662V74.1H84.262V73.418H80.654V74.111H79.895V64.662H85.032ZM80.654 72.67H84.262V70.723H80.654V72.67ZM80.654 69.986H84.262V68.039H80.654V69.986ZM80.654 67.302H84.262V65.41H80.654V67.302ZM77.959 68.347V74.089H77.178V68.512C76.804 69.568 76.331 70.514 75.737 71.372L75.429 70.591C76.232 69.524 76.804 68.303 77.156 66.928H75.627V66.169H77.178V64.024H77.959V66.169H79.378V66.928H77.959V67.511C78.465 68.039 78.971 68.633 79.477 69.282L79.048 69.92C78.63 69.282 78.267 68.754 77.959 68.347ZM89.41 64.057C89.85 64.629 90.268 65.245 90.664 65.927L89.949 66.29C89.553 65.586 89.135 64.959 88.684 64.409L89.41 64.057ZM93.546 63.958L94.305 64.167C94.041 64.959 93.711 65.674 93.315 66.301H95.581V67.071H91.907V67.588C91.885 68.138 91.841 68.655 91.753 69.117H96.219V69.887H92.215C92.754 71.372 94.173 72.527 96.483 73.352L96.021 74.089C93.601 73.11 92.105 71.779 91.511 70.107C91.302 70.734 91.027 71.284 90.675 71.757C89.927 72.725 88.706 73.484 87.012 74.023L86.583 73.33C88.266 72.791 89.443 72.076 90.103 71.196C90.367 70.8 90.576 70.371 90.73 69.887H86.781V69.117H90.928C91.027 68.633 91.082 68.127 91.093 67.588V67.071H87.408V66.301H92.435C92.853 65.663 93.216 64.882 93.546 63.958ZM105.701 74.034H104.524L104.326 73.297L105.536 73.319C105.954 73.319 106.163 73.077 106.163 72.593V65.421H101.895V64.651H106.966V72.802C106.966 73.616 106.537 74.034 105.701 74.034ZM98.034 65.839H98.837V74.111H98.034V65.839ZM100.498 67.423H104.458V71.559H100.498V67.423ZM103.655 70.8V68.182H101.301V70.8H103.655ZM99.673 63.925C100.179 64.53 100.641 65.19 101.037 65.916L100.333 66.279C99.915 65.509 99.442 64.838 98.936 64.244L99.673 63.925ZM116.085 73.176C117.185 73.176 118.01 73.154 118.56 73.132L118.428 73.924H116.261C113.621 73.924 111.982 73.781 111.322 73.495C110.739 73.253 110.222 72.802 109.771 72.164C109.573 72.868 109.298 73.517 108.946 74.111L108.374 73.605C108.968 72.604 109.287 71.482 109.342 70.228L110.046 70.316C110.024 70.69 109.991 71.031 109.936 71.361C110.222 71.812 110.541 72.164 110.882 72.417V69.744H108.704V69.018H113.368V69.744H111.586V70.91H113.093V71.614H111.586V72.813C111.652 72.835 111.707 72.857 111.751 72.879C112.389 73.077 113.83 73.176 116.085 73.176ZM109.199 64.442H112.95V68.281H109.199V64.442ZM112.18 67.621V66.686H109.969V67.621H112.18ZM109.969 66.07H112.18V65.102H109.969V66.07ZM113.522 64.453H118.274V65.179H116.294C116.261 65.487 116.217 65.773 116.151 66.059H117.966V70.503H117.229V66.741H114.567V70.503H113.863V66.059H115.436C115.502 65.773 115.546 65.476 115.579 65.179H113.522V64.453ZM116.69 70.536C117.372 71.064 117.944 71.592 118.406 72.12L117.845 72.67C117.438 72.164 116.877 71.614 116.162 71.042L116.69 70.536ZM115.535 67.258H116.261V68.809C116.239 69.854 116.03 70.69 115.656 71.317C115.282 71.9 114.666 72.351 113.83 72.681L113.401 71.999C114.193 71.713 114.743 71.317 115.062 70.822C115.348 70.305 115.513 69.634 115.535 68.809V67.258Z" fill="#666666"/>
<defs>
<linearGradient id="paint0_linear_25968_3516" x1="64" y1="0" x2="64" y2="40" gradientUnits="userSpaceOnUse">
<stop stop-color="#D9D9D9" stop-opacity="0"/>
<stop offset="1" stop-color="#737373" stop-opacity="0.5"/>
</linearGradient>
</defs>
</svg>
