<svg width="19" height="19" viewBox="0 0 19 19" fill="none" xmlns="http://www.w3.org/2000/svg">
<path d="M11.1533 0.424759L11.22 0.488092L17.7017 6.96976C18.0029 7.27117 18.1773 7.67653 18.1889 8.10252C18.2005 8.52852 18.0485 8.94279 17.7642 9.26018L17.7017 9.32684L10.3612 16.6664H17.9167C17.9714 16.6664 18.0256 16.6772 18.0761 16.6981C18.1267 16.7191 18.1726 16.7498 18.2113 16.7885C18.25 16.8272 18.2807 16.8731 18.3016 16.9236C18.3226 16.9742 18.3333 17.0284 18.3333 17.0831V17.9164C18.3333 18.0269 18.2894 18.1329 18.2113 18.2111C18.1332 18.2892 18.0272 18.3331 17.9167 18.3331H0.416667C0.30616 18.3331 0.200179 18.2892 0.122039 18.2111C0.0438986 18.1329 0 18.0269 0 17.9164V17.0831C0 17.0284 0.0107774 16.9742 0.0317168 16.9236C0.0526563 16.8731 0.0833477 16.8272 0.122039 16.7885C0.16073 16.7498 0.206663 16.7191 0.257215 16.6981C0.307768 16.6772 0.361949 16.6664 0.416667 16.6664H6.185L0.613333 11.0943C0.312011 10.793 0.137572 10.3877 0.12587 9.96166C0.114168 9.53566 0.266093 9.12137 0.550417 8.80393L0.612917 8.73726L8.86292 0.488092C9.16427 0.18677 9.5696 0.012331 9.9956 0.000629093C10.4216 -0.0110728 10.8359 0.140851 11.1533 0.425175V0.424759ZM10.7504 2.37559L10.3321 8.65476C10.3062 9.04232 10.1458 9.40868 9.87855 9.69055C9.61129 9.97241 9.25398 10.1521 8.86833 10.1985L8.78 10.2068L2.50083 10.6256L8.27333 16.3977L16.5233 8.14809L10.75 2.37559H10.7504ZM9.06208 2.64559L2.77083 8.93726L8.66917 8.54434L9.06208 2.64601V2.64559Z" fill="#B7BACE"/>
</svg>
