<svg width="24" height="24" viewBox="0 0 24 24" fill="none" xmlns="http://www.w3.org/2000/svg">
<path d="M6.30317 5.83319L6.30317 5.83319C5.89937 5.94676 5.54374 6.18923 5.29043 6.52368C5.03713 6.85813 4.90003 7.26622 4.9 7.68582V7.68582V12.9826C4.89996 13.6319 5.03193 14.2745 5.28787 14.8712C5.54381 15.468 5.91839 16.0064 6.38883 16.4539L6.38915 16.4542L6.65574 16.7055L6.65623 16.706L6.78748 16.8281L6.78795 16.8285L7.04602 17.0655L7.04676 17.0662L7.29903 17.2933L7.29981 17.294L7.54663 17.5116L7.54748 17.5123L7.78884 17.7204L7.78884 17.7204L7.78975 17.7211L8.02566 17.9196L8.02617 17.92C8.33805 18.179 8.63594 18.4125 8.92013 18.6203L8.92088 18.6208L9.1302 18.7709L9.13098 18.7714C10.1676 19.4997 11.0278 19.8789 11.733 19.8789C12.4383 19.8789 13.2984 19.4997 14.3351 18.7714L14.3359 18.7708L14.5452 18.6208L14.5462 18.6201C14.8512 18.3959 15.1493 18.1624 15.4401 17.9199L15.4404 17.9196L15.6763 17.7211L15.6773 17.7204L15.9186 17.5123L15.9195 17.5116L16.1663 17.294L16.1671 17.2933L16.4193 17.0662L16.4201 17.0655L16.6781 16.8285L16.6788 16.8279L16.9426 16.5813L16.9431 16.5809L17.0771 16.454L17.0773 16.4539C17.5477 16.0064 17.9223 15.468 18.1782 14.8712C18.4342 14.2745 18.5661 13.6319 18.5661 12.9826V7.68582C18.5661 7.26622 18.429 6.85813 18.1757 6.52368C17.9224 6.18923 17.5667 5.94676 17.1629 5.83319L12.2538 4.4523L12.2538 4.4523C11.9132 4.35652 11.5529 4.35652 11.2123 4.4523L11.1394 4.47281V4.47315L6.30317 5.83319ZM11.5896 5.79382C11.6784 5.76889 11.7721 5.76755 11.8614 5.78981L11.8768 5.79415L16.7859 7.17469C16.8973 7.20603 16.9954 7.27292 17.0652 7.3652C17.1351 7.45747 17.1729 7.57005 17.1729 7.68582V12.9826C17.1729 13.443 17.0794 13.8987 16.8979 14.3218C16.7164 14.7449 16.4509 15.1267 16.1173 15.4439C16.1173 15.4439 16.1172 15.444 16.1172 15.444L15.8726 15.6744L15.872 15.6749L15.6329 15.8965L15.6323 15.8971L15.399 16.1094L15.3984 16.11L15.1712 16.3132L15.1703 16.314L14.9484 16.5078L14.9479 16.5083L14.8396 16.6014L14.839 16.6019L14.6255 16.7826L14.6248 16.7832L14.5212 16.8694L14.5205 16.87L14.3163 17.0367L14.3153 17.0375L14.1168 17.1951C14.1168 17.1952 14.1167 17.1952 14.1166 17.1953C14.0839 17.2209 14.0518 17.246 14.0202 17.2699L14.02 17.27L13.8291 17.4153L13.8291 17.4153C13.7985 17.4386 13.7682 17.461 13.7375 17.4832L13.557 17.614L13.5559 17.6148L13.4695 17.6756L13.4683 17.6764L13.2971 17.7933C13.297 17.7934 13.297 17.7934 13.2969 17.7935C13.2696 17.8119 13.2423 17.8297 13.2146 17.8478C13.2144 17.8479 13.2143 17.848 13.2141 17.8481L13.0524 17.9512C13.0522 17.9513 13.0521 17.9514 13.0519 17.9515C12.4662 18.3161 12.0256 18.4852 11.733 18.4852C11.4405 18.4852 11.0002 18.3162 10.4142 17.9515C10.414 17.9514 10.4139 17.9513 10.4137 17.9512L10.2519 17.848C10.2517 17.8479 10.2516 17.8478 10.2514 17.8477C10.2239 17.8297 10.1964 17.8116 10.169 17.7933C10.1689 17.7932 10.1687 17.7931 10.1685 17.793L9.99835 17.6766L9.99698 17.6757L9.8205 17.5505L9.81937 17.5497L9.72946 17.4841L9.72845 17.4834L9.54254 17.344C9.54245 17.344 9.54236 17.3439 9.54227 17.3438C9.47767 17.2947 9.41343 17.2451 9.34955 17.195C9.34949 17.195 9.34943 17.1949 9.34936 17.1949L9.1508 17.0375L9.14966 17.0366L8.94592 16.8702L8.94489 16.8694L8.73455 16.6929L8.73417 16.6926C8.70571 16.6689 8.67755 16.6449 8.64851 16.6202C8.64141 16.6142 8.63426 16.6081 8.62705 16.6019C8.62692 16.6018 8.62679 16.6017 8.62667 16.6016L8.40788 16.4122L8.40709 16.4115L8.18258 16.213L8.18185 16.2124L7.95143 16.0046L7.95076 16.0039L7.71479 15.7872L7.71416 15.7866L7.47224 15.5606L7.47172 15.5601L7.34894 15.4437C7.01542 15.1265 6.74984 14.7448 6.56835 14.3218C6.38686 13.8988 6.29324 13.4432 6.2932 12.9829V7.68589C6.29327 7.57014 6.33115 7.45758 6.40106 7.36537C6.47098 7.27315 6.56909 7.20632 6.68047 7.17504L6.68052 7.17503L11.5896 5.79382Z" fill="#0075FF" stroke="#0075FF" stroke-width="0.2"/>
<path d="M13.4361 9.55487C13.588 9.55494 13.734 9.61372 13.8435 9.71894C13.9531 9.82415 14.0177 9.96766 14.024 10.1195C14.0302 10.2712 13.9776 10.4196 13.8771 10.5335C13.7766 10.6473 13.636 10.7179 13.4847 10.7305C13.4847 10.7305 13.4846 10.7305 13.4846 10.7305L13.4361 10.7325H13.436H10.027C10.027 10.7325 10.027 10.7325 10.027 10.7325C9.87513 10.7325 9.72917 10.6737 9.61962 10.5685C9.51007 10.4632 9.44541 10.3197 9.43916 10.1679C9.4329 10.0162 9.48554 9.86781 9.58606 9.75393C9.68655 9.6401 9.82712 9.56951 9.9784 9.5569L10.0272 9.55487L13.4361 9.55487Z" fill="#0075FF" stroke="#0075FF" stroke-width="0.0159834"/>
<path d="M11.7392 9.89062C11.8889 9.89063 12.0332 9.94696 12.1433 10.0484C12.2534 10.1499 12.3214 10.2891 12.3337 10.4383L12.3358 10.4875V13.8979C12.3357 14.0519 12.2761 14.1999 12.1695 14.3109C12.0629 14.422 11.9175 14.4876 11.7637 14.4939C11.6099 14.5003 11.4597 14.4469 11.3443 14.345C11.2289 14.243 11.1574 14.1004 11.1446 13.947L11.1426 13.8979V10.4875C11.1426 10.158 11.4099 9.89062 11.7392 9.89062Z" fill="#0075FF"/>
</svg>
