<svg width="24" height="24" viewBox="0 0 24 24" fill="none" xmlns="http://www.w3.org/2000/svg">
<path d="M14.4181 3.92188H9.54955C7.9477 3.92188 6.64453 5.22505 6.64453 6.8269V17.0869C6.64453 18.6887 7.9477 19.9919 9.54955 19.9919H14.4181C16.02 19.9919 17.3232 18.6887 17.3232 17.0869V6.8269C17.3232 5.22505 16.02 3.92188 14.4181 3.92188ZM16.3548 17.0869C16.3548 18.1547 15.486 19.0235 14.4182 19.0235H9.54955C8.48168 19.0235 7.61288 18.1547 7.61288 17.0869V6.8269C7.61288 5.75903 8.48168 4.8902 9.54955 4.8902H10.5537C10.5564 5.15527 10.7717 5.3695 11.0374 5.3695H12.9303C13.196 5.3695 13.4113 5.15527 13.414 4.8902H14.4181C15.486 4.8902 16.3548 5.75901 16.3548 6.8269V17.0869H16.3548Z" fill="#0075FF" stroke="#0075FF" stroke-width="0.35"/>
<path d="M12.9338 17.4844H11.0408C10.7734 17.4844 10.5566 17.7012 10.5566 17.9685C10.5566 18.2359 10.7734 18.4527 11.0408 18.4527H12.9338C13.2011 18.4527 13.4179 18.2359 13.4179 17.9685C13.4179 17.7012 13.2011 17.4844 12.9338 17.4844Z" fill="#0075FF"/>
</svg>
