<svg width="24" height="24" viewBox="0 0 24 24" fill="none" xmlns="http://www.w3.org/2000/svg">
<path d="M12.0539 8.14371C10.6403 8.14393 9.38709 8.62175 8.27594 9.4204V8.78665C8.27594 6.82183 9.94098 5.23681 12.0439 5.23681H12.228C14.2354 5.23681 15.8033 6.71545 15.8033 8.78665V9.39928C14.6937 8.61373 13.4554 8.14371 12.0539 8.14371H12.0539ZM17.1397 10.8135V8.78665C17.1397 5.9751 14.969 3.9 12.2278 3.9H12.0437C9.20147 3.9 6.93956 6.0629 6.93956 8.78665V10.854C6.25694 11.8365 5.9 13.0193 5.9 14.29C5.9 17.6845 8.65602 20.4362 12.0489 20.4362C15.4417 20.4362 18.2054 17.6847 18.2054 14.29C18.2054 13.0004 17.8221 11.803 17.1397 10.8135ZM12.0539 19.1069C9.39509 19.1069 7.23933 16.9501 7.23933 14.2902C7.23933 11.6302 9.39509 9.47347 12.0539 9.47347C14.713 9.47347 16.8688 11.63 16.8688 14.2902C16.8688 16.9504 14.713 19.1069 12.0539 19.1069Z" fill="#0075FF" stroke="#0075FF" stroke-width="0.2"/>
<path d="M14.2302 13.6699V13.6698C14.2302 12.4698 13.2546 11.4937 12.055 11.4937C10.8554 11.4937 9.87949 12.4698 9.87949 13.6698C9.87949 14.4116 10.2653 15.1035 10.8819 15.5001L10.9617 15.9781C10.9741 16.254 11.0919 16.5147 11.2909 16.7064C11.4915 16.8995 11.7589 17.0076 12.0374 17.0079L12.0376 17.0079C12.316 17.0076 12.5834 16.8996 12.784 16.7065C12.983 16.5148 13.1008 16.2542 13.1133 15.9783L13.1887 15.5258C13.4994 15.3357 13.7577 15.0705 13.9397 14.7543C14.1296 14.4244 14.2297 14.0506 14.2302 13.6699ZM11.7905 14.8975L11.7822 14.8459L11.735 14.8233L11.5484 14.7339C11.5484 14.7339 11.5484 14.7339 11.5484 14.7339C11.5484 14.7339 11.5484 14.7339 11.5484 14.7339C11.3476 14.6376 11.1779 14.4867 11.0588 14.2984C10.9398 14.1102 10.8761 13.8923 10.875 13.6696C10.8754 13.3567 10.9999 13.0568 11.2211 12.8356C11.4423 12.6143 11.7422 12.4899 12.055 12.4895C12.3677 12.4899 12.6676 12.6143 12.8887 12.8356C13.1098 13.0569 13.2342 13.3568 13.2345 13.6697C13.2341 13.8977 13.1678 14.1206 13.0436 14.3118C12.9195 14.503 12.7427 14.6541 12.5346 14.7471L12.5345 14.7472L12.3399 14.8345L12.2911 14.8564L12.2823 14.9093L12.1254 15.849L12.1251 15.8489L12.1244 15.8575L12.1192 15.9229L12.1191 15.9229L12.119 15.9259C12.1179 15.9468 12.1089 15.9666 12.0937 15.981C12.0785 15.9954 12.0584 16.0035 12.0375 16.0035C12.0166 16.0035 11.9964 15.9954 11.9813 15.981C11.9661 15.9666 11.957 15.9468 11.956 15.9259L11.9566 15.9259L11.9548 15.915L11.7905 14.8975Z" fill="#0075FF" stroke="#0075FF" stroke-width="0.2"/>
</svg>
